<svg width="512" height="512" viewBox="0 0 512 512" fill="none" xmlns="http://www.w3.org/2000/svg">
<path d="M388.712 97.4184C387.588 97.4191 386.481 97.146 385.486 96.6228C384.492 96.0996 383.64 95.342 383.004 94.4156C379.24 88.9406 375.078 83.7511 370.549 78.8895C369.347 77.54 368.72 75.7733 368.803 73.9674C368.886 72.1615 369.673 70.4598 370.994 69.2266C372.316 67.9933 374.068 67.3264 375.876 67.3686C377.683 67.4107 379.402 68.1586 380.665 69.4521C385.654 74.8151 390.238 80.5412 394.378 86.5834C395.091 87.6217 395.507 88.8349 395.581 90.0923C395.655 91.3496 395.385 92.6033 394.799 93.7182C394.213 94.8331 393.334 95.767 392.256 96.419C391.179 97.0711 389.943 97.4166 388.684 97.4184H388.712Z" fill="#FFC25B"/>
<path d="M338.889 380.056H173.111C171.276 380.056 169.517 379.327 168.219 378.03C166.921 376.732 166.192 374.972 166.192 373.137V370.093C166.192 336.792 155.53 324.345 134.303 299.52C131.971 296.801 129.536 293.985 126.997 290.947C101.454 260.533 87.4314 222.099 87.386 182.383C87.3864 159.466 92.0588 136.791 101.118 115.742C110.177 94.6921 123.432 75.7104 140.074 59.9563C156.716 44.2021 176.395 32.0063 197.909 24.1137C219.423 16.2211 242.321 12.7976 265.202 14.0522C290.508 15.38 315.168 22.518 337.27 34.9127C338.838 35.8232 339.987 37.3133 340.468 39.0621C340.948 40.8109 340.723 42.6786 339.841 44.2632C338.958 45.8477 337.489 47.0224 335.749 47.5342C334.009 48.0461 332.138 47.8543 330.538 47.0001C310.281 35.6404 287.682 29.0945 264.49 27.8693C243.482 26.7113 222.46 29.8491 202.706 37.091C182.953 44.3329 164.884 55.5267 149.603 69.9883C134.322 84.4499 122.151 101.876 113.832 121.201C105.514 140.525 101.224 161.343 101.224 182.383C101.26 218.85 114.135 254.14 137.59 282.063C140.094 285.039 142.509 287.855 144.813 290.546C165.293 314.465 179.062 330.544 179.982 366.218H332.108C333.623 329.333 347.6 313.136 371.857 285.039L373.296 283.378C392.006 261.671 404.295 235.179 408.784 206.876C408.925 205.978 409.243 205.117 409.717 204.342C410.192 203.567 410.814 202.893 411.549 202.358C412.284 201.823 413.117 201.439 414.001 201.226C414.884 201.014 415.801 200.977 416.699 201.119C417.597 201.261 418.458 201.578 419.233 202.052C420.008 202.527 420.682 203.149 421.216 203.884C421.751 204.619 422.136 205.452 422.348 206.336C422.561 207.22 422.597 208.137 422.455 209.034C417.557 239.87 404.164 268.731 383.779 292.38L382.333 294.054C357.251 323.113 345.808 336.363 345.808 373.109C345.811 374.02 345.635 374.923 345.289 375.766C344.943 376.608 344.434 377.374 343.791 378.02C343.148 378.665 342.384 379.177 341.543 379.527C340.702 379.876 339.8 380.056 338.889 380.056V380.056Z" fill="#FFC25B"/>
<path d="M415.198 160.865C413.578 160.864 412.011 160.294 410.768 159.256C409.525 158.219 408.686 156.778 408.396 155.185C407.219 148.712 405.627 142.322 403.629 136.054C403.071 134.305 403.231 132.406 404.073 130.775C404.915 129.144 406.371 127.914 408.119 127.357C409.868 126.799 411.767 126.959 413.398 127.801C415.029 128.643 416.259 130.098 416.817 131.847C418.991 138.683 420.727 145.65 422.013 152.708C422.194 153.705 422.154 154.731 421.895 155.711C421.637 156.692 421.165 157.604 420.515 158.382C419.865 159.16 419.052 159.786 418.133 160.215C417.214 160.644 416.212 160.866 415.198 160.865V160.865Z" fill="#FFC25B"/>
<path d="M352.941 430.89H159.059C155.169 430.886 151.44 429.34 148.689 426.59C145.938 423.84 144.39 420.112 144.384 416.222V380.894C144.388 377.003 145.935 373.272 148.686 370.521C151.438 367.77 155.168 366.222 159.059 366.219H352.941C356.832 366.222 360.562 367.77 363.314 370.521C366.065 373.272 367.612 377.003 367.616 380.894V416.222C367.611 420.112 366.062 423.84 363.311 426.59C360.56 429.34 356.831 430.886 352.941 430.89V430.89ZM159.059 380.057C158.837 380.057 158.624 380.145 158.467 380.302C158.31 380.459 158.222 380.672 158.222 380.894V416.222C158.224 416.443 158.313 416.654 158.47 416.809C158.626 416.965 158.838 417.052 159.059 417.052H352.941C353.162 417.052 353.374 416.965 353.531 416.809C353.687 416.654 353.776 416.443 353.778 416.222V380.894C353.778 380.672 353.69 380.459 353.533 380.302C353.376 380.145 353.163 380.057 352.941 380.057H159.059Z" fill="#FFC25B"/>
<path d="M299.299 498.162H212.701C206.279 498.162 200.119 495.611 195.578 491.07C191.036 486.528 188.485 480.369 188.485 473.946V423.971C188.485 422.136 189.214 420.376 190.512 419.078C191.809 417.781 193.569 417.052 195.404 417.052H316.589C318.424 417.052 320.184 417.781 321.481 419.078C322.779 420.376 323.508 422.136 323.508 423.971V473.946C323.508 480.367 320.957 486.526 316.417 491.067C311.878 495.608 305.72 498.16 299.299 498.162ZM202.33 430.89V473.946C202.33 476.699 203.423 479.338 205.37 481.285C207.316 483.231 209.956 484.324 212.708 484.324H299.299C302.051 484.324 304.691 483.231 306.637 481.285C308.583 479.338 309.677 476.699 309.677 473.946V430.89H202.33Z" fill="#FFC25B"/>
<path d="M195.432 461.914H159.059C157.224 461.914 155.464 461.185 154.167 459.888C152.869 458.59 152.14 456.83 152.14 454.995C152.14 453.16 152.869 451.4 154.167 450.103C155.464 448.805 157.224 448.076 159.059 448.076H195.432C197.267 448.076 199.027 448.805 200.324 450.103C201.622 451.4 202.351 453.16 202.351 454.995C202.351 456.83 201.622 458.59 200.324 459.888C199.027 461.185 197.267 461.914 195.432 461.914V461.914Z" fill="#FFC25B"/>
<path d="M352.941 461.914H316.568C314.733 461.914 312.973 461.185 311.676 459.888C310.378 458.59 309.649 456.83 309.649 454.995C309.649 453.16 310.378 451.4 311.676 450.103C312.973 448.805 314.733 448.076 316.568 448.076H352.941C354.776 448.076 356.536 448.805 357.833 450.103C359.131 451.4 359.86 453.16 359.86 454.995C359.86 456.83 359.131 458.59 357.833 459.888C356.536 461.185 354.776 461.914 352.941 461.914Z" fill="#FFC25B"/>
<path d="M300.814 225.024C299.446 225.024 298.108 224.618 296.971 223.857C295.833 223.097 294.947 222.017 294.423 220.753C293.9 219.488 293.763 218.098 294.029 216.756C294.296 215.414 294.955 214.181 295.922 213.213L329.244 179.892L295.922 146.57C294.662 145.265 293.965 143.518 293.98 141.704C293.996 139.889 294.724 138.154 296.007 136.871C297.289 135.588 299.025 134.861 300.839 134.845C302.653 134.829 304.401 135.527 305.706 136.787L343.919 175C345.216 176.298 345.945 178.057 345.945 179.892C345.945 181.726 345.216 183.486 343.919 184.783L305.706 222.997C304.408 224.294 302.649 225.024 300.814 225.024Z" fill="#FFC25B"/>
<path d="M211.186 225.024C209.351 225.024 207.592 224.294 206.294 222.997L168.081 184.783C166.784 183.486 166.055 181.726 166.055 179.892C166.055 178.057 166.784 176.298 168.081 175L206.294 136.787C207.599 135.527 209.347 134.829 211.161 134.845C212.975 134.861 214.711 135.588 215.993 136.871C217.276 138.154 218.004 139.889 218.02 141.704C218.035 143.518 217.338 145.265 216.078 146.57L182.756 179.892L216.078 213.213C217.045 214.181 217.704 215.414 217.971 216.756C218.237 218.098 218.1 219.488 217.577 220.753C217.053 222.017 216.167 223.097 215.029 223.857C213.892 224.618 212.554 225.024 211.186 225.024Z" fill="#FFC25B"/>
<path d="M241.194 256C240.705 256 240.218 255.949 239.741 255.848C238.851 255.658 238.008 255.295 237.259 254.779C236.51 254.263 235.87 253.604 235.376 252.841C234.882 252.077 234.543 251.224 234.379 250.33C234.215 249.435 234.229 248.517 234.42 247.628L264.047 109.201C264.237 108.313 264.601 107.47 265.117 106.722C265.632 105.974 266.291 105.335 267.054 104.841C267.817 104.347 268.669 104.009 269.563 103.844C270.457 103.68 271.374 103.694 272.263 103.884C273.152 104.074 273.994 104.438 274.742 104.954C275.49 105.47 276.129 106.128 276.623 106.891C277.117 107.654 277.456 108.507 277.62 109.4C277.784 110.294 277.77 111.212 277.58 112.1L247.953 250.555C247.617 252.097 246.763 253.479 245.534 254.469C244.304 255.46 242.772 256 241.194 256V256Z" fill="#FFC25B"/>
</svg>
