<svg id="Icons" height="512" viewBox="0 0 74 74" width="512" xmlns="http://www.w3.org/2000/svg"><path d="m56.181 14.08a1 1 0 0 1 -.825-.434 19.494 19.494 0 0 0 -1.8-2.244 1 1 0 0 1 1.462-1.364 21.376 21.376 0 0 1 1.982 2.476 1 1 0 0 1 -.823 1.566z"/><path d="m48.98 54.93h-23.96a1 1 0 0 1 -1-1v-.44c0-4.813-1.541-6.612-4.609-10.2-.337-.393-.689-.8-1.056-1.239a24.442 24.442 0 0 1 -5.725-15.691 24.366 24.366 0 0 1 25.7-24.329 23.85 23.85 0 0 1 10.416 3.015 1 1 0 0 1 -.973 1.747 21.876 21.876 0 0 0 -9.546-2.765 22.366 22.366 0 0 0 -23.597 22.332 22.435 22.435 0 0 0 5.256 14.407c.362.43.711.837 1.044 1.226 2.96 3.457 4.95 5.781 5.083 10.937h21.987c.219-5.331 2.239-7.672 5.745-11.733l.208-.24a22.281 22.281 0 0 0 5.129-11.057 1 1 0 1 1 1.976.312 24.286 24.286 0 0 1 -5.59 12.046l-.209.242c-3.625 4.2-5.279 6.115-5.279 11.426a1 1 0 0 1 -1 1.004z"/><path d="m60.009 23.25a1 1 0 0 1 -.983-.821 22.166 22.166 0 0 0 -.689-2.765 1 1 0 1 1 1.906-.608 24.326 24.326 0 0 1 .751 3.015 1 1 0 0 1 -.985 1.179z"/><path d="m51.011 62.277h-28.022a2.123 2.123 0 0 1 -2.121-2.12v-5.106a2.123 2.123 0 0 1 2.121-2.121h28.022a2.123 2.123 0 0 1 2.121 2.121v5.106a2.123 2.123 0 0 1 -2.121 2.12zm-28.022-7.347a.121.121 0 0 0 -.121.121v5.106a.121.121 0 0 0 .121.12h28.022a.121.121 0 0 0 .121-.12v-5.106a.121.121 0 0 0 -.121-.121z"/><path d="m43.258 72h-12.516a3.5 3.5 0 0 1 -3.5-3.5v-7.223a1 1 0 0 1 1-1h17.515a1 1 0 0 1 1 1v7.223a3.5 3.5 0 0 1 -3.499 3.5zm-14.015-9.723v6.223a1.5 1.5 0 0 0 1.5 1.5h12.515a1.5 1.5 0 0 0 1.5-1.5v-6.223z"/><path d="m28.246 66.761h-5.257a1 1 0 0 1 0-2h5.257a1 1 0 0 1 0 2z"/><path d="m51.011 66.761h-5.257a1 1 0 1 1 0-2h5.257a1 1 0 0 1 0 2z"/><path d="m43.477 32.523a1 1 0 0 1 -.707-1.707l4.816-4.816-4.816-4.816a1 1 0 0 1 1.414-1.414l5.523 5.523a1 1 0 0 1 0 1.414l-5.523 5.523a1 1 0 0 1 -.707.293z"/><path d="m30.523 32.523a1 1 0 0 1 -.707-.293l-5.523-5.523a1 1 0 0 1 0-1.414l5.523-5.523a1 1 0 0 1 1.414 1.414l-4.816 4.816 4.816 4.816a1 1 0 0 1 -.707 1.707z"/><path d="m34.86 37a1.013 1.013 0 0 1 -.21-.022 1 1 0 0 1 -.769-1.188l4.282-20.007a1 1 0 1 1 1.956.419l-4.282 20.011a1 1 0 0 1 -.977.787z"/></svg>