<svg width="400" height="350" viewBox="0 0 400 350" fill="none" xmlns="http://www.w3.org/2000/svg">
<g clip-path="url(#clip0)">
<path d="M399.992 326.036C399.93 333.749 399.414 341.45 398.445 349.091C398.411 349.359 398.374 349.628 398.34 349.896L332.271 349.492C332.077 349.226 331.886 348.956 331.701 348.683C331.084 347.78 330.506 346.851 329.976 345.89C327.425 341.261 326.257 335.841 327.427 332.102L327.448 332.044C327.701 331.225 328.099 330.469 328.62 329.819C331.288 326.535 336.682 327.083 341.578 329.733C337.187 324.478 333.691 317.847 333.425 311.928C333.164 306.155 335.926 302.03 338.92 298.525C339.019 298.41 339.117 298.297 339.215 298.184C339.263 298.126 339.313 298.072 339.361 298.014C341.698 295.343 344.422 292.71 348.365 293.028C352.689 293.378 357.483 297.338 360.845 301.953C364.207 306.564 366.44 311.803 368.705 316.916C370.972 322.025 373.425 327.265 377.063 331.632C372.135 324.818 368.162 317.064 366.695 309.524C365.227 301.983 366.519 294.74 370.91 291.189C372.244 290.144 373.787 289.464 375.41 289.204C375.599 289.17 375.792 289.142 375.987 289.117C380.053 288.611 384.907 290.149 389.037 293.823C393.585 297.869 396.738 303.867 398.307 309.561C399.876 315.255 400.043 320.737 399.992 326.036Z" fill="#F2F2F2"/>
<path d="M356.766 349.641L355.503 349.633C355.102 349.359 354.699 349.088 354.294 348.82C354.043 348.648 353.789 348.481 353.536 348.311C349.345 345.513 345.128 342.829 340.885 340.259C336.646 337.687 332.386 335.233 328.104 332.898C327.99 332.844 327.898 332.748 327.842 332.627C327.786 332.507 327.771 332.368 327.799 332.236C327.804 332.219 327.811 332.203 327.82 332.188C327.88 332.065 328.014 332.014 328.208 332.119C328.734 332.407 329.262 332.695 329.787 332.989C334.081 335.364 338.356 337.858 342.612 340.47C346.866 343.081 351.095 345.807 355.301 348.649C355.389 348.707 355.478 348.769 355.566 348.828C355.967 349.099 356.365 349.37 356.766 349.641Z" fill="white"/>
<path d="M373.056 349.741L372.275 349.737C372.098 349.467 371.925 349.198 371.749 348.928C367.609 342.581 363.47 336.234 359.332 329.887C352.556 319.496 345.781 309.105 339.008 298.714C338.968 298.658 338.938 298.594 338.921 298.525C338.863 298.295 339.017 298.16 339.215 298.184C339.299 298.197 339.379 298.23 339.45 298.279C339.521 298.329 339.582 298.394 339.628 298.472C343.427 304.299 347.226 310.124 351.023 315.947C357.764 326.286 364.505 336.624 371.244 346.961C371.673 347.617 372.102 348.277 372.53 348.933C372.706 349.202 372.883 349.472 373.056 349.741Z" fill="white"/>
<path d="M390.46 344.782C390.42 346.221 390.333 347.638 390.219 349.041C390.197 349.309 390.175 349.578 390.153 349.846L389.333 349.841C389.358 349.573 389.383 349.304 389.405 349.036C389.579 347.008 389.702 344.958 389.718 342.852C389.74 337.013 389.22 331.187 388.165 325.463C387.044 319.299 385.434 313.254 383.354 307.396C381.171 301.218 378.538 295.241 375.482 289.522C375.425 289.429 375.399 289.316 375.41 289.204C375.444 288.949 375.755 288.873 375.987 289.117C376.033 289.165 376.073 289.22 376.105 289.28C376.483 289.991 376.854 290.704 377.218 291.419C380.162 297.169 382.681 303.167 384.752 309.356C386.725 315.233 388.226 321.287 389.238 327.449C390.185 333.166 390.595 338.974 390.46 344.782Z" fill="white"/>
<path d="M270.803 337.219C270.77 341.25 270.5 345.274 269.994 349.267C269.976 349.407 269.957 349.547 269.939 349.687L235.413 349.477C235.312 349.337 235.212 349.196 235.115 349.054C234.793 348.582 234.491 348.096 234.214 347.594C232.881 345.175 232.27 342.343 232.882 340.389L232.893 340.359C233.025 339.931 233.233 339.535 233.505 339.196C234.899 337.48 237.718 337.766 240.277 339.151C237.982 336.405 236.155 332.939 236.016 329.846C235.88 326.829 237.323 324.674 238.888 322.842C238.939 322.782 238.991 322.723 239.042 322.664C239.067 322.634 239.093 322.605 239.118 322.575C240.339 321.179 241.763 319.803 243.823 319.97C246.083 320.153 248.588 322.222 250.345 324.634C252.102 327.043 253.269 329.781 254.453 332.453C255.637 335.123 256.919 337.861 258.82 340.143C256.245 336.582 254.169 332.53 253.402 328.59C252.635 324.649 253.31 320.865 255.605 319.009C256.302 318.463 257.108 318.107 257.956 317.971C258.055 317.953 258.156 317.939 258.258 317.926C260.383 317.662 262.919 318.465 265.077 320.385C267.388 322.555 269.071 325.412 269.922 328.61C270.742 331.585 270.829 334.45 270.803 337.219Z" fill="#F2F2F2"/>
<path d="M248.214 349.554L247.554 349.55C247.344 349.407 247.133 349.265 246.922 349.125C246.791 349.035 246.658 348.948 246.526 348.859C244.336 347.397 242.132 345.994 239.915 344.651C237.7 343.307 235.473 342.025 233.236 340.805C233.176 340.777 233.128 340.727 233.099 340.663C233.07 340.6 233.062 340.528 233.077 340.459C233.079 340.45 233.083 340.441 233.088 340.434C233.119 340.37 233.188 340.343 233.29 340.398C233.565 340.548 233.841 340.699 234.115 340.852C236.359 342.094 238.593 343.397 240.817 344.762C243.04 346.126 245.25 347.551 247.448 349.036C247.494 349.066 247.54 349.099 247.587 349.13C247.796 349.271 248.004 349.413 248.214 349.554Z" fill="white"/>
<path d="M256.726 349.607L256.318 349.605C256.226 349.464 256.135 349.323 256.043 349.182C253.88 345.865 251.717 342.548 249.555 339.232C246.013 333.801 242.473 328.371 238.934 322.941C238.913 322.912 238.897 322.879 238.888 322.843C238.858 322.723 238.939 322.652 239.042 322.665C239.086 322.671 239.128 322.688 239.165 322.714C239.202 322.74 239.234 322.774 239.258 322.815C241.243 325.86 243.228 328.904 245.213 331.947C248.735 337.35 252.258 342.752 255.78 348.154C256.004 348.497 256.228 348.842 256.452 349.184C256.544 349.325 256.636 349.466 256.726 349.607Z" fill="white"/>
<path d="M265.821 347.014C265.8 347.766 265.755 348.507 265.695 349.24C265.684 349.38 265.672 349.52 265.661 349.661L265.232 349.658C265.245 349.518 265.259 349.378 265.27 349.237C265.361 348.178 265.425 347.106 265.434 346.006C265.445 342.954 265.173 339.91 264.622 336.918C264.036 333.698 263.195 330.539 262.108 327.478C260.967 324.249 259.591 321.125 257.994 318.137C257.964 318.088 257.951 318.029 257.956 317.971C257.974 317.837 258.137 317.798 258.258 317.925C258.282 317.95 258.303 317.979 258.319 318.01C258.517 318.382 258.711 318.754 258.901 319.128C260.44 322.133 261.756 325.268 262.838 328.502C263.87 331.573 264.654 334.736 265.182 337.957C265.677 340.944 265.892 343.979 265.821 347.014Z" fill="white"/>
<path d="M71.4536 190.334H6.74797C4.95892 190.331 3.24373 189.553 1.97869 188.17C0.71364 186.787 0.00203871 184.912 0 182.956V97.9793C0.00203871 96.0233 0.71364 94.148 1.97869 92.7649C3.24373 91.3818 4.95892 90.6038 6.74797 90.6016H71.4536C73.2426 90.6038 74.9578 91.3818 76.2228 92.7649C77.4879 94.148 78.1995 96.0233 78.2015 97.9793V182.956C78.1995 184.912 77.4879 186.787 76.2228 188.17C74.9578 189.553 73.2426 190.331 71.4536 190.334ZM6.74797 91.5431C5.18722 91.545 3.6909 92.2237 2.58729 93.4303C1.48367 94.6369 0.862889 96.2729 0.861129 97.9793V182.956C0.862889 184.662 1.48367 186.298 2.58729 187.505C3.6909 188.711 5.18722 189.39 6.74797 189.392H71.4536C73.0143 189.39 74.5106 188.711 75.6142 187.505C76.7178 186.298 77.3386 184.662 77.3404 182.956V97.9793C77.3386 96.2729 76.7179 94.6369 75.6142 93.4303C74.5106 92.2237 73.0143 91.545 71.4536 91.5431H6.74797Z" fill="white"/>
<path d="M54.2263 97.5875H23.9753C22.5484 97.5858 21.1804 96.9653 20.1714 95.8621C19.1624 94.759 18.5949 93.2633 18.5933 91.7032V90.4429C18.5949 88.8828 19.1624 87.3872 20.1714 86.284C21.1804 85.1809 22.5484 84.5603 23.9753 84.5586H54.2263C55.6532 84.5603 57.0212 85.1809 58.0302 86.284C59.0392 87.3872 59.6068 88.8828 59.6084 90.4429V91.7032C59.6068 93.2633 59.0392 94.759 58.0302 95.8621C57.0212 96.9653 55.6532 97.5858 54.2263 97.5875Z" fill="#CCCCCC"/>
<path d="M68.7733 143.817H9.42794C9.0254 143.817 8.62672 143.731 8.25468 143.563C7.88264 143.395 7.54455 143.148 7.25974 142.837C6.97493 142.526 6.74899 142.157 6.59483 141.75C6.44067 141.344 6.36133 140.908 6.36133 140.468C6.36133 140.028 6.44067 139.592 6.59483 139.186C6.74899 138.779 6.97493 138.41 7.25974 138.099C7.54455 137.788 7.88264 137.541 8.25468 137.373C8.62672 137.205 9.0254 137.119 9.42794 137.119H68.7733C69.585 137.12 70.3632 137.473 70.9368 138.101C71.5104 138.729 71.8326 139.581 71.8326 140.468C71.8326 141.355 71.5104 142.207 70.9368 142.835C70.3632 143.462 69.585 143.816 68.7733 143.817Z" fill="#FFC25B"/>
<path d="M68.7733 158.05H9.42794C9.0254 158.051 8.62672 157.965 8.25468 157.796C7.88264 157.628 7.54455 157.382 7.25974 157.071C6.97493 156.76 6.74899 156.39 6.59483 155.984C6.44067 155.577 6.36133 155.141 6.36133 154.701C6.36133 154.261 6.44067 153.825 6.59483 153.419C6.74899 153.012 6.97493 152.643 7.25974 152.332C7.54455 152.021 7.88264 151.774 8.25468 151.606C8.62672 151.438 9.0254 151.352 9.42794 151.353H68.7733C69.585 151.354 70.3632 151.707 70.9368 152.335C71.5104 152.963 71.8326 153.814 71.8326 154.701C71.8326 155.589 71.5104 156.44 70.9368 157.068C70.3632 157.696 69.585 158.049 68.7733 158.05Z" fill="#FFC25B"/>
<path d="M52.8842 129.584H25.3174C24.9148 129.585 24.5161 129.499 24.1441 129.331C23.772 129.163 23.434 128.916 23.1491 128.605C22.8643 128.294 22.6384 127.925 22.4842 127.518C22.3301 127.111 22.2507 126.676 22.2507 126.236C22.2507 125.795 22.3301 125.36 22.4842 124.953C22.6384 124.547 22.8643 124.177 23.1491 123.866C23.434 123.555 23.772 123.309 24.1441 123.14C24.5161 122.972 24.9148 122.886 25.3174 122.887H52.8842C53.2868 122.886 53.6855 122.972 54.0575 123.14C54.4295 123.309 54.7676 123.555 55.0524 123.866C55.3372 124.177 55.5632 124.547 55.7174 124.953C55.8715 125.36 55.9509 125.795 55.9509 126.236C55.9509 126.676 55.8715 127.111 55.7174 127.518C55.5632 127.925 55.3372 128.294 55.0524 128.605C54.7676 128.916 54.4295 129.163 54.0575 129.331C53.6855 129.499 53.2868 129.585 52.8842 129.584Z" fill="#FFC25B"/>
<path d="M208.905 105.776H144.199C142.41 105.774 140.695 104.996 139.43 103.613C138.165 102.23 137.453 100.355 137.451 98.3985V13.4217C137.453 11.4656 138.165 9.59039 139.43 8.20728C140.695 6.82417 142.41 6.04616 144.199 6.04395H208.905C210.694 6.04616 212.409 6.82417 213.674 8.20728C214.939 9.59039 215.651 11.4656 215.653 13.4217V98.3985C215.651 100.355 214.939 102.23 213.674 103.613C212.409 104.996 210.694 105.774 208.905 105.776ZM144.199 6.98544C142.639 6.98735 141.142 7.66607 140.039 8.87268C138.935 10.0793 138.314 11.7153 138.313 13.4217V98.3985C138.314 100.105 138.935 101.741 140.039 102.948C141.142 104.154 142.639 104.833 144.199 104.835H208.905C210.466 104.833 211.962 104.154 213.066 102.948C214.169 101.741 214.79 100.105 214.792 98.3985V13.4217C214.79 11.7153 214.169 10.0793 213.066 8.87267C211.962 7.66606 210.466 6.98735 208.905 6.98544H144.199Z" fill="white"/>
<path d="M191.678 13.029H161.427C160 13.0272 158.632 12.4067 157.623 11.3035C156.614 10.2004 156.046 8.70472 156.045 7.14464V5.88433C156.046 4.32425 156.614 2.82857 157.623 1.72542C158.632 0.622273 160 0.00175432 161.427 0H191.678C193.105 0.00175432 194.473 0.622273 195.482 1.72542C196.491 2.82857 197.058 4.32425 197.06 5.88433V7.14464C197.058 8.70472 196.491 10.2004 195.482 11.3035C194.473 12.4067 193.105 13.0272 191.678 13.029Z" fill="#CCCCCC"/>
<path d="M206.225 59.2592H146.88C146.477 59.2597 146.078 59.1735 145.706 59.0054C145.334 58.8374 144.996 58.5908 144.711 58.2798C144.427 57.9687 144.201 57.5994 144.046 57.1928C143.892 56.7863 143.813 56.3505 143.813 55.9104C143.813 55.4702 143.892 55.0345 144.046 54.6279C144.201 54.2213 144.427 53.852 144.711 53.541C144.996 53.23 145.334 52.9834 145.706 52.8153C146.078 52.6472 146.477 52.561 146.88 52.5615H206.225C206.627 52.561 207.026 52.6472 207.398 52.8153C207.77 52.9834 208.108 53.23 208.393 53.541C208.678 53.852 208.904 54.2213 209.058 54.6279C209.212 55.0345 209.292 55.4702 209.292 55.9104C209.292 56.3505 209.212 56.7863 209.058 57.1928C208.904 57.5994 208.678 57.9687 208.393 58.2798C208.108 58.5908 207.77 58.8374 207.398 59.0054C207.026 59.1735 206.627 59.2597 206.225 59.2592Z" fill="#FFC25B"/>
<path d="M206.225 73.4916H146.879C146.477 73.4916 146.079 73.405 145.707 73.2367C145.336 73.0684 144.998 72.8217 144.714 72.5108C144.429 72.1998 144.203 71.8306 144.05 71.4243C143.896 71.018 143.816 70.5826 143.816 70.1428C143.816 69.703 143.896 69.2675 144.05 68.8612C144.203 68.4549 144.429 68.0858 144.714 67.7748C144.998 67.4638 145.336 67.2172 145.707 67.0489C146.079 66.8806 146.477 66.7939 146.879 66.7939H206.225C206.627 66.7939 207.025 66.8806 207.397 67.0489C207.768 67.2172 208.106 67.4638 208.391 67.7748C208.675 68.0858 208.901 68.4549 209.055 68.8612C209.208 69.2675 209.288 69.703 209.288 70.1428C209.288 70.5826 209.208 71.018 209.055 71.4243C208.901 71.8306 208.675 72.1998 208.391 72.5108C208.106 72.8217 207.768 73.0684 207.397 73.2367C207.025 73.405 206.627 73.4916 206.225 73.4916Z" fill="#FFC25B"/>
<path d="M190.336 45.0248H162.769C162.366 45.0253 161.968 44.9391 161.595 44.771C161.223 44.603 160.885 44.3564 160.601 44.0454C160.316 43.7343 160.09 43.365 159.936 42.9584C159.781 42.5519 159.702 42.1161 159.702 41.676C159.702 41.2359 159.781 40.8001 159.936 40.3935C160.09 39.987 160.316 39.6176 160.601 39.3066C160.885 38.9956 161.223 38.749 161.595 38.5809C161.968 38.4129 162.366 38.3266 162.769 38.3272H190.336C191.148 38.3272 191.927 38.68 192.502 39.308C193.076 39.936 193.399 40.7878 193.399 41.676C193.399 42.5641 193.076 43.4159 192.502 44.044C191.927 44.672 191.148 45.0248 190.336 45.0248Z" fill="#FFC25B"/>
<path d="M340.916 248.952L284.1 282.805C282.529 283.739 280.682 283.953 278.966 283.401C277.25 282.848 275.804 281.574 274.946 279.857L237.753 205.242C236.899 203.523 236.703 201.504 237.208 199.628C237.714 197.752 238.879 196.171 240.449 195.233L297.265 161.38C298.837 160.446 300.684 160.232 302.4 160.784C304.116 161.337 305.562 162.611 306.42 164.328L343.613 238.943C344.467 240.662 344.663 242.681 344.157 244.557C343.652 246.433 342.486 248.014 340.916 248.952ZM240.861 196.06C239.492 196.878 238.475 198.257 238.034 199.894C237.593 201.531 237.764 203.292 238.509 204.791L275.702 279.407C276.451 280.904 277.712 282.016 279.209 282.498C280.706 282.98 282.317 282.793 283.688 281.978L340.504 248.125C341.874 247.307 342.891 245.928 343.332 244.291C343.773 242.654 343.602 240.893 342.856 239.394L305.663 164.778C304.915 163.281 303.654 162.169 302.157 161.687C300.66 161.205 299.049 161.392 297.677 162.207L240.861 196.06Z" fill="white"/>
<path d="M285.196 176.526L258.633 192.353C257.38 193.098 255.907 193.268 254.538 192.828C253.169 192.387 252.016 191.371 251.332 190.002L250.78 188.895C250.099 187.524 249.943 185.914 250.346 184.417C250.749 182.921 251.678 181.66 252.931 180.912L279.493 165.085C280.747 164.34 282.22 164.169 283.588 164.61C284.957 165.051 286.11 166.067 286.794 167.436L287.346 168.543C288.027 169.914 288.184 171.524 287.781 173.02C287.377 174.517 286.448 175.778 285.196 176.526Z" fill="#CCCCCC"/>
<path d="M318.203 209.508L266.094 240.557C265.741 240.767 265.353 240.9 264.953 240.946C264.553 240.993 264.149 240.953 263.763 240.829C263.377 240.705 263.017 240.498 262.704 240.222C262.391 239.946 262.131 239.605 261.939 239.219C261.746 238.833 261.625 238.409 261.582 237.972C261.54 237.534 261.576 237.092 261.69 236.67C261.804 236.248 261.992 235.855 262.245 235.513C262.497 235.171 262.809 234.886 263.162 234.676L315.272 203.627C315.985 203.202 316.824 203.104 317.603 203.355C318.382 203.606 319.038 204.185 319.427 204.965C319.816 205.745 319.905 206.662 319.676 207.514C319.446 208.366 318.917 209.083 318.203 209.508Z" fill="#CCCCCC"/>
<path d="M324.433 222.005L272.323 253.054C271.97 253.264 271.582 253.397 271.182 253.443C270.782 253.49 270.378 253.45 269.992 253.326C269.606 253.202 269.247 252.996 268.934 252.719C268.621 252.443 268.36 252.102 268.168 251.716C267.975 251.33 267.854 250.906 267.812 250.469C267.769 250.031 267.806 249.589 267.919 249.167C268.033 248.746 268.221 248.352 268.474 248.01C268.727 247.668 269.039 247.383 269.392 247.173L321.501 216.124C321.854 215.914 322.242 215.781 322.642 215.735C323.042 215.688 323.446 215.728 323.832 215.852C324.218 215.977 324.578 216.183 324.891 216.459C325.204 216.735 325.464 217.076 325.656 217.462C325.849 217.848 325.97 218.272 326.013 218.709C326.055 219.147 326.019 219.589 325.905 220.011C325.791 220.433 325.603 220.826 325.35 221.168C325.098 221.51 324.786 221.795 324.433 222.005Z" fill="#CCCCCC"/>
<path d="M298.022 205.325L273.816 219.747C273.463 219.958 273.075 220.09 272.675 220.137C272.276 220.183 271.871 220.143 271.485 220.019C271.099 219.895 270.74 219.689 270.427 219.413C270.114 219.136 269.854 218.795 269.661 218.409C269.469 218.023 269.348 217.599 269.305 217.162C269.262 216.725 269.299 216.283 269.412 215.861C269.526 215.439 269.715 215.046 269.967 214.703C270.22 214.361 270.532 214.077 270.885 213.866L295.09 199.443C295.444 199.233 295.831 199.101 296.231 199.054C296.631 199.007 297.036 199.047 297.422 199.172C297.807 199.296 298.167 199.502 298.48 199.778C298.793 200.054 299.053 200.395 299.246 200.781C299.438 201.168 299.559 201.591 299.602 202.029C299.645 202.466 299.608 202.908 299.494 203.33C299.381 203.752 299.192 204.145 298.94 204.487C298.687 204.83 298.375 205.114 298.022 205.325Z" fill="#CCCCCC"/>
<path d="M120.217 76.9549L89.9536 96.166L90.386 96.9802L120.65 77.7691L120.217 76.9549Z" fill="white"/>
<path d="M121.503 82.1118L125.777 73.9697L117.191 73.9919L121.503 82.1118Z" fill="white"/>
<path d="M209.785 203.335C209.717 203.335 209.649 203.317 209.589 203.283L93.2721 137.956C93.1708 137.899 93.0943 137.8 93.0596 137.682C93.0248 137.563 93.0345 137.434 93.0866 137.323C93.1387 137.212 93.2289 137.128 93.3375 137.09C93.446 137.052 93.564 137.062 93.6655 137.119L209.982 202.446C210.068 202.494 210.137 202.572 210.177 202.668C210.217 202.764 210.226 202.872 210.204 202.975C210.181 203.078 210.127 203.169 210.051 203.234C209.975 203.3 209.882 203.335 209.785 203.335Z" fill="white"/>
<path d="M206.706 206.412L215.282 205.951L210.63 198.061L206.706 206.412Z" fill="white"/>
<path d="M329.801 257.348C329.196 257.019 328.664 256.548 328.243 255.97C327.822 255.391 327.522 254.719 327.364 254C327.206 253.281 327.195 252.533 327.33 251.809C327.465 251.084 327.744 250.401 328.147 249.807L324.688 212.835H332.163L334.912 248.937C335.779 249.743 336.346 250.869 336.505 252.101C336.664 253.334 336.404 254.587 335.774 255.624C335.144 256.661 334.188 257.409 333.087 257.727C331.986 258.045 330.817 257.91 329.801 257.348V257.348Z" fill="#A0616A"/>
<path d="M322.938 192.432C328.778 192.432 333.513 187.255 333.513 180.87C333.513 174.484 328.778 169.308 322.938 169.308C317.097 169.308 312.363 174.484 312.363 180.87C312.363 187.255 317.097 192.432 322.938 192.432Z" fill="#A0616A"/>
<path d="M320.532 234.318L304.749 230.55C304.334 230.45 303.96 230.204 303.686 229.85C303.411 229.496 303.25 229.053 303.227 228.589C303.045 224.739 302.914 214.778 305.627 205.479C306.151 203.696 306.996 202.046 308.114 200.627C309.231 199.207 310.598 198.048 312.132 197.216C313.667 196.384 315.338 195.897 317.048 195.784C318.758 195.671 320.471 195.934 322.086 196.558C323.79 197.212 325.349 198.254 326.659 199.613C327.969 200.973 329.002 202.62 329.689 204.446C330.376 206.273 330.702 208.238 330.646 210.212C330.59 212.186 330.153 214.125 329.363 215.901C325.863 223.759 323.658 229.449 322.811 232.815C322.68 233.337 322.37 233.784 321.946 234.064C321.522 234.343 321.015 234.435 320.532 234.318Z" fill="#FFC25B"/>
<path d="M305.663 344.159L300.385 344.158L297.874 321.897L305.664 321.898L305.663 344.159Z" fill="#A0616A"/>
<path d="M296.614 342.51H306.794V349.518H290.204C290.204 347.659 290.88 345.877 292.082 344.562C293.284 343.248 294.914 342.51 296.614 342.51Z" fill="#2F2E41"/>
<path d="M358.447 336.679L353.821 339.459L341.811 321.276L348.638 317.172L358.447 336.679Z" fill="#A0616A"/>
<path d="M349.79 340L358.711 334.638L361.799 340.779L347.261 349.517C346.442 347.888 346.249 345.971 346.723 344.186C347.197 342.401 348.301 340.895 349.79 340Z" fill="#2F2E41"/>
<path d="M305.759 331.797L297.633 331.113C297.178 331.076 296.75 330.864 296.425 330.515C296.099 330.166 295.896 329.702 295.853 329.206C294.695 315.999 289.614 249.072 303.357 228.466L303.395 228.409L303.456 228.384C303.579 228.335 315.835 223.557 322.867 232.313C323.088 232.592 323.238 232.928 323.304 233.289C323.369 233.651 323.347 234.024 323.24 234.374L322.972 235.254C322.895 235.503 322.874 235.769 322.912 236.029C322.949 236.289 323.043 236.535 323.185 236.747C325.137 239.631 331.704 250.74 334.286 272.584C334.302 272.723 334.335 272.86 334.383 272.99L353.442 324.177C353.539 324.439 353.588 324.719 353.584 325.001C353.581 325.283 353.527 325.562 353.424 325.821C353.321 326.079 353.172 326.313 352.985 326.508C352.798 326.703 352.578 326.855 352.337 326.955L346.34 329.453C345.903 329.633 345.422 329.635 344.984 329.459C344.546 329.283 344.18 328.941 343.953 328.496L316.441 273.922C316.331 273.705 316.162 273.531 315.957 273.425C315.751 273.32 315.521 273.288 315.298 273.334C315.075 273.38 314.871 273.502 314.715 273.683C314.56 273.863 314.46 274.093 314.431 274.339L307.829 329.957C307.769 330.467 307.541 330.935 307.188 331.275C306.834 331.615 306.38 331.802 305.91 331.803C305.86 331.803 305.81 331.801 305.759 331.797Z" fill="#2F2E41"/>
<path d="M281.826 194.299C281.879 194.553 281.913 194.812 281.929 195.071L300.425 206.738L304.921 203.908L309.713 210.768L302.2 216.623C301.593 217.096 300.862 217.341 300.117 217.321C299.372 217.301 298.652 217.017 298.067 216.513L278.995 200.062C278.134 200.41 277.197 200.464 276.307 200.216C275.418 199.967 274.619 199.429 274.016 198.672C273.414 197.915 273.036 196.975 272.934 195.978C272.832 194.981 273.01 193.973 273.444 193.089C273.878 192.205 274.549 191.487 275.366 191.03C276.182 190.572 277.107 190.397 278.017 190.529C278.927 190.66 279.779 191.091 280.459 191.765C281.14 192.438 281.616 193.322 281.826 194.299V194.299Z" fill="#A0616A"/>
<path d="M300.679 205.572C300.735 205.274 300.849 204.992 301.013 204.746C301.177 204.501 301.388 204.296 301.631 204.148L310.119 198.959C311.247 198.008 312.673 197.584 314.086 197.781C315.499 197.977 316.783 198.779 317.657 200.009C318.53 201.239 318.922 202.798 318.746 204.343C318.57 205.889 317.841 207.295 316.718 208.253L309.951 215.937C309.758 216.156 309.523 216.327 309.264 216.438C309.005 216.55 308.727 216.599 308.449 216.582C308.171 216.566 307.9 216.484 307.653 216.342C307.407 216.2 307.191 216.002 307.021 215.761L301.043 207.291C300.873 207.05 300.752 206.771 300.69 206.475C300.627 206.178 300.623 205.87 300.679 205.572Z" fill="#FFC25B"/>
<path d="M322.649 221.568C322.433 221.377 322.257 221.137 322.133 220.864C322.009 220.592 321.94 220.293 321.932 219.989L321.627 209.362C321.374 207.829 321.687 206.249 322.497 204.969C323.308 203.688 324.549 202.811 325.951 202.529C327.352 202.248 328.798 202.586 329.971 203.468C331.145 204.351 331.951 205.706 332.212 207.237L335.334 217.343C335.423 217.631 335.454 217.937 335.425 218.24C335.396 218.543 335.308 218.835 335.167 219.097C335.025 219.36 334.834 219.585 334.605 219.759C334.377 219.933 334.116 220.051 333.842 220.105L324.212 222.006C323.938 222.061 323.657 222.05 323.387 221.974C323.117 221.898 322.866 221.76 322.649 221.568Z" fill="#FFC25B"/>
<path d="M321.264 178.209C318.546 180.243 314.977 182.334 312.201 180.168C310.379 178.746 309.804 176.112 310.543 173.801C311.873 169.645 315.525 167.816 319.017 166.413C323.557 164.59 328.501 163.139 333.188 164.445C337.874 165.751 342.017 170.712 341.17 175.919C340.49 180.106 336.878 183.589 337.39 187.805C337.907 192.047 342.27 194.28 346.123 195.039C349.976 195.797 354.287 196.04 357.055 199.066C360.587 202.925 359.705 209.824 356.382 213.899C353.058 217.974 348.043 219.821 343.183 221.077C336.745 222.74 329.78 223.615 323.665 220.854C317.55 218.092 312.791 210.66 314.562 203.69C315.311 200.746 317.073 198.258 318.777 195.836C320.481 193.414 322.206 190.881 322.855 187.909C323.397 185.433 322.996 182.557 321.494 180.7C321.221 180.375 321.049 179.963 321.003 179.525C320.957 179.086 321.039 178.643 321.238 178.258L321.264 178.209Z" fill="#2F2E41"/>
<path d="M398.837 350H234.792C234.677 350 234.568 349.95 234.487 349.862C234.406 349.774 234.361 349.654 234.361 349.529C234.361 349.404 234.406 349.285 234.487 349.196C234.568 349.108 234.677 349.059 234.792 349.059H398.837C398.951 349.059 399.06 349.108 399.141 349.196C399.222 349.285 399.267 349.404 399.267 349.529C399.267 349.654 399.222 349.774 399.141 349.862C399.06 349.95 398.951 350 398.837 350Z" fill="white"/>
</g>
<defs>
<clipPath id="clip0">
<rect width="400" height="350" fill="white"/>
</clipPath>
</defs>
</svg>
