<svg width="300" height="300" viewBox="0 0 300 300" fill="none" xmlns="http://www.w3.org/2000/svg">
<g clip-path="url(#clip0)">
<path d="M125.545 170.623C125.738 170.698 125.912 170.805 126.058 170.94C126.204 171.074 126.319 171.233 126.396 171.408C126.474 171.582 126.512 171.769 126.509 171.956C126.506 172.144 126.462 172.329 126.379 172.502L124.214 177.011L124.46 177.124L122.983 180.185L122.747 180.067L114.99 196.223C114.725 196.776 114.244 197.223 113.638 197.482C113.031 197.74 112.341 197.792 111.695 197.628L99.6347 194.555C99.3411 194.48 99.0692 194.349 98.8383 194.17C98.6073 193.991 98.4228 193.769 98.2977 193.519C98.1725 193.269 98.1098 192.998 98.114 192.724C98.1181 192.451 98.1889 192.181 98.3215 191.934L110.478 169.33C110.733 168.855 111.161 168.473 111.691 168.245C112.221 168.017 112.822 167.958 113.394 168.076L125.262 170.541C125.359 170.56 125.454 170.588 125.545 170.623Z" fill="white"/>
<path d="M115.507 169.818L121.746 171.114C121.858 171.137 121.976 171.127 122.081 171.084C122.186 171.041 122.272 170.969 122.327 170.878C122.388 170.774 122.486 170.692 122.605 170.644C122.724 170.595 122.857 170.583 122.984 170.61L124.298 170.883C124.478 170.92 124.646 170.992 124.79 171.094C124.935 171.196 125.053 171.325 125.137 171.472C125.22 171.619 125.266 171.781 125.272 171.946C125.277 172.111 125.243 172.275 125.17 172.427L113.944 195.857C113.805 196.147 113.551 196.382 113.231 196.516C112.911 196.649 112.548 196.673 112.21 196.581L100.234 193.341C100.081 193.3 99.9403 193.229 99.8207 193.135C99.7011 193.04 99.6056 192.923 99.5409 192.793C99.4762 192.662 99.4437 192.52 99.4456 192.377C99.4476 192.234 99.484 192.093 99.5523 191.964L111.417 169.504C111.592 169.173 111.888 168.905 112.256 168.746C112.623 168.587 113.041 168.545 113.439 168.627L114.824 168.915C114.79 169.115 114.841 169.319 114.968 169.487C115.095 169.654 115.287 169.773 115.507 169.818Z" fill="#FFC25B"/>
<path d="M164.133 48.8398C158.747 48.8398 153.482 47.4076 149.003 44.7243C144.525 42.041 141.035 38.2272 138.973 33.765C136.912 29.3029 136.373 24.3928 137.424 19.6558C138.474 14.9188 141.068 10.5676 144.877 7.15243C148.685 3.73725 153.538 1.41148 158.82 0.469232C164.103 -0.473015 169.579 0.0105823 174.555 1.85887C179.531 3.70715 183.784 6.83711 186.776 10.8529C189.769 14.8688 191.366 19.5901 191.366 24.4199C191.358 30.8942 188.486 37.1013 183.381 41.6793C178.275 46.2573 171.353 48.8325 164.133 48.8398ZM164.133 1.16286C159.003 1.16286 153.989 2.52686 149.724 5.08238C145.459 7.6379 142.134 11.2702 140.171 15.5198C138.208 19.7695 137.695 24.4457 138.696 28.9571C139.696 33.4686 142.166 37.6126 145.794 40.8652C149.421 44.1177 154.042 46.3327 159.073 47.2301C164.104 48.1275 169.319 47.6669 174.058 45.9066C178.798 44.1464 182.848 41.1655 185.698 37.3409C188.548 33.5163 190.069 29.0197 190.069 24.4199C190.061 18.2539 187.326 12.3424 182.464 7.9824C177.602 3.62236 171.009 1.16983 164.133 1.16286Z" fill="#CCCCCC"/>
<path d="M269.174 71.5156C263.788 71.5156 258.523 70.0834 254.044 67.4001C249.566 64.7168 246.075 60.903 244.014 56.4408C241.953 51.9786 241.414 47.0686 242.464 42.3316C243.515 37.5946 246.109 33.2434 249.917 29.8282C253.726 26.413 258.578 24.0873 263.861 23.145C269.144 22.2028 274.619 22.6864 279.595 24.5346C284.572 26.3829 288.825 29.5129 291.817 33.5287C294.809 37.5446 296.407 42.2659 296.407 47.0957C296.398 53.57 293.527 59.7771 288.421 64.3551C283.316 68.9331 276.394 71.5083 269.174 71.5156ZM269.174 23.8386C264.044 23.8386 259.03 25.2026 254.765 27.7582C250.5 30.3137 247.175 33.9459 245.212 38.1956C243.249 42.4453 242.736 47.1215 243.736 51.6329C244.737 56.1443 247.207 60.2884 250.834 63.5409C254.462 66.7935 259.083 69.0085 264.114 69.9059C269.145 70.8033 274.36 70.3427 279.099 68.5824C283.838 66.8222 287.889 63.8412 290.739 60.0166C293.589 56.192 295.11 51.6955 295.11 47.0957C295.102 40.9297 292.367 35.0182 287.505 30.6582C282.643 26.2981 276.05 23.8456 269.174 23.8386Z" fill="#CCCCCC"/>
<path d="M220.544 148.845C215.158 148.845 209.892 147.413 205.414 144.729C200.936 142.046 197.445 138.232 195.384 133.77C193.323 129.308 192.784 124.398 193.834 119.661C194.885 114.924 197.479 110.573 201.287 107.157C205.096 103.742 209.948 101.416 215.231 100.474C220.514 99.5319 225.989 100.015 230.965 101.864C235.941 103.712 240.195 106.842 243.187 110.858C246.179 114.874 247.776 119.595 247.776 124.425C247.768 130.899 244.897 137.106 239.791 141.684C234.686 146.262 227.764 148.837 220.544 148.845ZM220.544 101.168C215.414 101.168 210.4 102.532 206.135 105.087C201.869 107.643 198.545 111.275 196.582 115.525C194.619 119.774 194.105 124.451 195.106 128.962C196.107 133.473 198.577 137.617 202.204 140.87C205.832 144.123 210.453 146.338 215.484 147.235C220.515 148.132 225.73 147.672 230.469 145.912C235.208 144.151 239.259 141.17 242.109 137.346C244.959 133.521 246.48 129.025 246.48 124.425C246.472 118.259 243.737 112.347 238.875 107.987C234.012 103.627 227.42 101.175 220.544 101.168Z" fill="#CCCCCC"/>
<path d="M284.735 40.4079L287.977 39.8264C287.977 39.8264 285.254 42.5591 284.735 42.7336C284.687 43.3142 284.687 43.8972 284.735 44.4779C278.511 68.4326 255.557 57.8507 255.557 57.8507C263.922 58.0251 264.635 54.9435 264.635 54.9435C259.772 54.304 258.799 51.455 258.799 51.455C259.236 51.6614 259.742 51.7162 260.22 51.6089C260.699 51.5016 261.116 51.2398 261.393 50.8735C256.141 49.6525 256.854 45.0593 256.854 45.0593C257.79 45.6653 258.884 46.0457 260.031 46.164C259.448 45.5244 254.52 40.2334 257.503 37.5007C257.503 37.5007 261.134 43.315 270.665 43.8383L271.313 43.722C271.203 43.3032 271.16 42.8726 271.184 42.4429C271.184 40.8237 271.901 39.2709 273.178 38.126C274.455 36.9811 276.186 36.3379 277.992 36.3379C282.531 36.3379 283.503 38.6636 283.503 38.6636L286.745 36.9193C286.681 36.9193 286.356 39.8264 284.735 40.4079Z" fill="white"/>
<path d="M232.65 111.052L208.618 111.054C208.309 111.04 208 111.082 207.709 111.176C207.418 111.269 207.15 111.414 206.922 111.601C206.693 111.788 206.508 112.013 206.377 112.264C206.246 112.516 206.171 112.788 206.158 113.065L206.16 134.662C206.177 135.243 206.441 135.796 206.899 136.208C207.356 136.619 207.973 136.858 208.621 136.874L232.645 136.873C233.277 136.85 233.874 136.606 234.307 136.191C234.739 135.777 234.972 135.227 234.955 134.66L234.953 113.062C234.958 112.792 234.901 112.524 234.786 112.275C234.672 112.025 234.501 111.799 234.285 111.611C234.07 111.423 233.813 111.276 233.532 111.18C233.251 111.084 232.95 111.04 232.65 111.052ZM215.085 132.576L210.96 132.576L210.959 121.075L215.084 121.075L215.085 132.576ZM213.164 119.326H213.135C212.541 119.323 211.973 119.108 211.556 118.73C211.138 118.352 210.904 117.841 210.906 117.308C210.908 116.776 211.146 116.266 211.566 115.89C211.986 115.515 212.556 115.304 213.149 115.304C213.743 115.304 214.312 115.515 214.733 115.89C215.153 116.266 215.391 116.776 215.392 117.308C215.394 117.841 215.161 118.352 214.743 118.73C214.326 119.108 213.758 119.323 213.164 119.326ZM230.162 132.575L226.037 132.575L226.036 126.287C226.036 124.78 225.435 123.751 223.943 123.751C223.476 123.754 223.022 123.887 222.643 124.132C222.264 124.376 221.979 124.72 221.828 125.116C221.718 125.409 221.67 125.717 221.685 126.025L221.686 132.576L217.561 132.576L217.56 121.075L221.685 121.074L221.685 122.675C222.06 122.092 222.604 121.611 223.259 121.282C223.913 120.953 224.655 120.788 225.405 120.805C228.113 120.805 230.161 122.405 230.162 125.856V132.575Z" fill="white"/>
<path fill-rule="evenodd" clip-rule="evenodd" d="M181.936 24.5155C181.935 21.4649 180.96 18.4783 179.125 15.9093C177.291 13.3403 174.673 11.2965 171.584 10.0198C168.494 8.74318 165.061 8.28712 161.691 8.70565C158.321 9.12418 155.156 10.3998 152.569 12.3814C149.983 14.3631 148.083 16.9678 147.096 19.8873C146.109 22.8067 146.076 25.9186 147 28.8545C147.924 31.7905 149.767 34.4275 152.31 36.4535C154.854 38.4794 157.991 39.8095 161.352 40.2861V29.1315H156.83V24.5155H161.352V20.9978C161.352 16.9976 164.01 14.7862 168.076 14.7862C169.411 14.8029 170.744 14.9072 172.062 15.0983V19.0273H169.816C167.606 19.0273 166.914 20.2573 166.914 21.5216V24.5162H171.851L171.063 29.1322H166.914V40.2876C171.102 39.6928 174.916 37.7775 177.67 34.8863C180.423 31.9951 181.936 28.3177 181.936 24.5155V24.5155Z" fill="white"/>
<path d="M85.807 292.725L93.2195 292.725L96.7449 267.086L85.8044 267.087L85.807 292.725Z" fill="#FFB8B8"/>
<path d="M107.516 298.896L84.2191 298.897L84.2183 290.826L98.514 290.825C99.6961 290.825 100.867 291.033 101.959 291.439C103.051 291.844 104.043 292.439 104.879 293.188C105.715 293.938 106.378 294.828 106.83 295.807C107.283 296.786 107.516 297.836 107.516 298.895L107.516 298.896Z" fill="#2F2E41"/>
<path d="M45.8515 292.725L53.2646 292.725L56.7893 267.086L45.8489 267.087L45.8515 292.725Z" fill="#FFB8B8"/>
<path d="M67.5608 298.896L44.264 298.897L44.2632 290.826L58.559 290.825C60.9462 290.825 63.2357 291.675 64.9239 293.188C66.612 294.702 67.5606 296.755 67.5608 298.895L67.5608 298.896Z" fill="#2F2E41"/>
<path d="M67.5608 110.462C76.3561 110.462 83.4862 104.069 83.4862 96.1818C83.4862 88.2949 76.3561 81.9014 67.5608 81.9014C58.7655 81.9014 51.6355 88.2949 51.6355 96.1818C51.6355 104.069 58.7655 110.462 67.5608 110.462Z" fill="#FFB8B8"/>
<path d="M122.015 189.314C121.904 188.523 121.6 187.764 121.126 187.089C120.653 186.415 120.02 185.842 119.272 185.411C118.525 184.98 117.681 184.701 116.8 184.593C115.919 184.486 115.023 184.554 114.174 184.791L105.274 175.224L97.4714 178.656L110.252 192.008C110.79 193.26 111.822 194.291 113.152 194.906C114.482 195.522 116.018 195.678 117.468 195.346C118.918 195.014 120.181 194.216 121.019 193.105C121.858 191.993 122.212 190.644 122.015 189.314Z" fill="#FFB8B8"/>
<path d="M45.4171 198.989C45.7964 198.269 45.9948 197.482 45.9984 196.685C46.0019 195.888 45.8105 195.1 45.4377 194.376C45.0648 193.653 44.5196 193.011 43.8404 192.497C43.1612 191.983 42.3646 191.609 41.5066 191.4L39.7197 179.045L31.0818 178.188L33.8784 195.604C33.5839 196.92 33.8378 198.286 34.5921 199.445C35.3464 200.604 36.5485 201.475 37.9708 201.892C39.3931 202.31 40.9367 202.245 42.3091 201.71C43.6815 201.175 44.7874 200.207 45.4172 198.989L45.4171 198.989Z" fill="#FFB8B8"/>
<path d="M33.3288 191.435C32.6293 191.435 31.9531 191.209 31.4234 190.799C30.8937 190.39 30.5458 189.823 30.443 189.203L26.1912 163.528C25.657 160.296 26.0891 156.995 27.4434 153.962L40.4966 124.751C41.0304 123.556 41.9062 122.509 43.0357 121.714C44.1651 120.92 45.5082 120.407 46.9294 120.227C48.3506 120.047 49.7996 120.207 51.1302 120.689C52.4607 121.172 53.6257 121.961 54.5076 122.976H54.5077C55.419 124.023 55.9948 125.273 56.173 126.591C56.3512 127.909 56.1252 129.246 55.5191 130.458L49.3655 142.801C42.4644 156.647 39.8604 171.908 41.8287 186.971C41.9084 187.579 41.7477 188.193 41.3747 188.706C41.0017 189.218 40.44 189.597 39.7873 189.777L34.1858 191.32C33.9081 191.396 33.6193 191.435 33.3288 191.435Z" fill="#CCCCCC"/>
<path d="M63.6832 110.462C61.2864 110.508 58.9058 110.099 56.6977 109.262C54.4897 108.425 52.5043 107.178 50.8719 105.603C49.2396 104.029 47.9973 102.162 47.2267 100.127C46.4561 98.0911 46.1746 95.9322 46.4007 93.792C46.6268 91.6519 47.3555 89.5788 48.5387 87.7091C49.722 85.8395 51.333 84.2155 53.2661 82.9439C55.1991 81.6724 57.4104 80.782 59.7545 80.3314C62.0986 79.8807 64.5225 79.88 66.867 80.3293C70.3691 78.4225 74.4409 77.1394 78.5218 77.4657C82.6027 77.7921 86.6387 79.9647 88.1647 83.3742C89.6908 86.7838 88.0513 91.2782 84.2568 92.6639C81.8241 93.5522 79.0769 93.1214 76.4808 92.7632C73.8847 92.405 71.0526 92.1712 68.7932 93.3724C66.5338 94.5735 65.5181 97.7944 67.5416 99.2961C68.6143 100.124 69.3802 101.225 69.7375 102.453C70.0948 103.68 70.0264 104.977 69.5414 106.169C68.5244 108.527 65.7487 110.422 63.6832 110.462Z" fill="#2F2E41"/>
<path d="M43.6939 287.56C43.3041 287.56 42.9183 287.49 42.5591 287.355C42.1999 287.219 41.8748 287.02 41.6028 286.77C41.3307 286.519 41.1174 286.223 40.9754 285.897C40.8333 285.572 40.7654 285.224 40.7757 284.875L43.6087 188.465L43.9176 188.459L90.7491 187.543L98.8349 281.29C98.8792 281.86 98.7143 282.428 98.3654 282.907C98.0165 283.386 97.5027 283.75 96.9021 283.943L96.8133 283.959L87.6219 284.462C87.2343 284.58 86.8234 284.623 86.4161 284.588C86.0088 284.554 85.614 284.443 85.2575 284.263C84.901 284.083 84.5907 283.838 84.3467 283.543C84.1028 283.249 83.9306 282.912 83.8415 282.554L68.8586 222.436C68.8092 222.238 68.6843 222.062 68.5056 221.938C68.3268 221.813 68.1052 221.749 67.8791 221.755C67.6529 221.761 67.4363 221.838 67.2665 221.972C67.0967 222.106 66.9844 222.289 66.9488 222.49L55.8799 284.928C55.7725 285.52 55.4429 286.061 54.9459 286.461C54.4489 286.862 53.8142 287.098 53.147 287.131L43.8411 287.557C43.7919 287.559 43.7429 287.56 43.6939 287.56Z" fill="#2F2E41"/>
<path d="M57.4765 196.444C51.6487 196.444 46.5594 195.655 43.7492 193.402C41.9432 191.954 41.1622 189.986 41.4279 187.551C42.4266 178.398 40.696 158.335 39.0684 143.117C38.6956 139.548 39.1182 135.948 40.3115 132.527C41.5048 129.105 43.445 125.931 46.0192 123.188C48.4961 120.531 51.5454 118.35 54.9845 116.774C58.4236 115.198 62.1819 114.261 66.0344 114.018C71.3957 113.676 83.9503 112.878 87.8527 121.84C93.7151 135.304 90.8479 141.478 88.0751 147.449C85.7193 152.522 83.2834 157.768 86.2693 167.618C87.9188 173.065 89.9163 178.423 92.2521 183.664C93.869 187.382 94.6806 189.248 93.9313 190.467C93.3402 191.428 91.8657 191.847 89.3516 192.283C88.5304 192.426 87.4454 192.633 86.1531 192.879C79.5834 194.132 67.4491 196.444 57.4765 196.444Z" fill="#CCCCCC"/>
<path d="M105.323 188.007C105.3 188.007 105.278 188.007 105.255 188.006C104.835 187.998 104.422 187.908 104.045 187.743C103.667 187.578 103.333 187.342 103.067 187.05L86.559 169.012C83.0342 165.158 80.7133 160.535 79.8335 155.613L74.7506 127.129C74.5793 126.168 74.6232 125.186 74.8801 124.241C75.1369 123.296 75.6013 122.406 76.2463 121.624C76.8912 120.841 77.7037 120.182 78.6361 119.685C79.5686 119.187 80.6023 118.862 81.6768 118.727C82.7513 118.592 83.845 118.651 84.8939 118.9C85.9427 119.148 86.9258 119.582 87.7854 120.176C88.6451 120.769 89.364 121.511 89.9003 122.356C90.4366 123.202 90.7794 124.135 90.9086 125.101L92.9293 140.21C94.7977 154.165 100.834 167.41 110.4 178.545L111.555 179.889C111.971 180.374 112.185 180.974 112.159 181.586C112.133 182.198 111.869 182.782 111.412 183.236L107.491 187.141C107.217 187.414 106.883 187.632 106.509 187.781C106.136 187.93 105.732 188.007 105.323 188.007Z" fill="#CCCCCC"/>
<path d="M184.479 54.5555C190.475 54.5555 195.337 50.1486 195.337 44.7123C195.337 39.2761 190.475 34.8691 184.479 34.8691C178.482 34.8691 173.621 39.2761 173.621 44.7123C173.621 50.1486 178.482 54.5555 184.479 54.5555Z" fill="white"/>
<path d="M186.65 49.9623H184.44V42.409C183.624 43.0977 182.648 43.6163 181.583 43.9278V42.1091C182.267 41.8833 182.903 41.554 183.463 41.1356C184.097 40.7098 184.581 40.129 184.856 39.4629H186.65V49.9623Z" fill="white"/>
<path d="M184.479 54.5555C190.475 54.5555 195.337 50.1486 195.337 44.7123C195.337 39.2761 190.475 34.8691 184.479 34.8691C178.482 34.8691 173.621 39.2761 173.621 44.7123C173.621 50.1486 178.482 54.5555 184.479 54.5555Z" fill="#FFC25B"/>
<path d="M186.65 49.9623H184.44V42.409C183.624 43.0977 182.648 43.6163 181.583 43.9278V42.1091C182.267 41.8833 182.903 41.554 183.463 41.1356C184.097 40.7098 184.581 40.129 184.856 39.4629H186.65V49.9623Z" fill="white"/>
<path d="M289.023 79.1766C295.086 79.1766 300 74.7696 300 69.3334C300 63.8972 295.086 59.4902 289.023 59.4902C282.961 59.4902 278.046 63.8972 278.046 69.3334C278.046 74.7696 282.961 79.1766 289.023 79.1766Z" fill="white"/>
<path d="M287.719 70.9424C287.681 71.4707 287.848 71.9945 288.19 72.4258C288.311 72.5821 288.472 72.7107 288.659 72.8015C288.846 72.8923 289.054 72.9428 289.266 72.9488C289.454 72.9504 289.64 72.9125 289.809 72.8381C289.977 72.7638 290.124 72.655 290.238 72.5206C290.537 72.1047 290.674 71.6113 290.627 71.118C290.673 70.5999 290.526 70.0828 290.208 69.6484C290.087 69.5054 289.932 69.3891 289.753 69.3084C289.575 69.2277 289.378 69.1846 289.178 69.1825C288.978 69.1805 288.781 69.2195 288.6 69.2965C288.42 69.3736 288.261 69.4866 288.137 69.6271C287.829 70.0077 287.681 70.4735 287.719 70.9424ZM292.48 66.6433L290.447 66.8543C290.431 66.5333 290.294 66.2267 290.058 65.9848C289.95 65.8908 289.823 65.8175 289.683 65.7693C289.543 65.721 289.393 65.6989 289.243 65.7042C289.019 65.7071 288.798 65.7598 288.602 65.8576C288.406 65.9555 288.239 66.0954 288.118 66.265C287.713 66.9889 287.514 67.7916 287.539 68.6014C287.765 68.3292 288.059 68.1086 288.398 67.9573C288.737 67.8061 289.111 67.7284 289.49 67.7306C289.919 67.7292 290.344 67.8128 290.734 67.9754C291.123 68.1379 291.468 68.3756 291.743 68.6713C292.387 69.3443 292.723 70.2115 292.681 71.0977C292.731 72.0245 292.378 72.9325 291.695 73.6296C291.347 73.9518 290.927 74.2033 290.462 74.3671C289.997 74.5308 289.498 74.603 288.999 74.5786C288.5 74.5543 288.012 74.434 287.57 74.226C287.127 74.018 286.739 73.7271 286.433 73.373C285.72 72.5669 285.364 71.245 285.364 69.4073C285.364 67.5226 285.735 66.1643 286.478 65.3322C286.816 64.934 287.254 64.6132 287.757 64.3962C288.26 64.1792 288.813 64.0722 289.371 64.0837C290.127 64.0595 290.866 64.2938 291.437 64.7393C292.022 65.2455 292.391 65.919 292.48 66.6433Z" fill="white"/>
<path d="M289.023 79.1766C295.086 79.1766 300 74.7696 300 69.3334C300 63.8972 295.086 59.4902 289.023 59.4902C282.961 59.4902 278.046 63.8972 278.046 69.3334C278.046 74.7696 282.961 79.1766 289.023 79.1766Z" fill="#FFC25B"/>
<path d="M287.719 70.9424C287.681 71.4707 287.848 71.9945 288.19 72.4258C288.311 72.5821 288.472 72.7107 288.659 72.8015C288.846 72.8923 289.054 72.9428 289.266 72.9488C289.454 72.9504 289.64 72.9125 289.809 72.8381C289.977 72.7638 290.124 72.655 290.238 72.5206C290.537 72.1047 290.674 71.6113 290.627 71.118C290.673 70.5999 290.526 70.0828 290.208 69.6484C290.087 69.5054 289.932 69.3891 289.753 69.3084C289.575 69.2277 289.378 69.1846 289.178 69.1825C288.978 69.1805 288.781 69.2195 288.6 69.2965C288.42 69.3736 288.261 69.4866 288.137 69.6271C287.829 70.0077 287.681 70.4735 287.719 70.9424ZM292.48 66.6433L290.447 66.8543C290.431 66.5333 290.294 66.2267 290.058 65.9848C289.95 65.8908 289.823 65.8175 289.683 65.7693C289.543 65.721 289.393 65.6989 289.243 65.7042C289.019 65.7071 288.798 65.7598 288.602 65.8576C288.406 65.9555 288.239 66.0954 288.118 66.265C287.713 66.9889 287.514 67.7916 287.539 68.6014C287.765 68.3292 288.059 68.1086 288.398 67.9573C288.737 67.8061 289.111 67.7284 289.49 67.7306C289.919 67.7292 290.344 67.8128 290.734 67.9754C291.123 68.1379 291.468 68.3756 291.743 68.6713C292.387 69.3443 292.723 70.2115 292.681 71.0977C292.731 72.0245 292.378 72.9325 291.695 73.6296C291.347 73.9518 290.927 74.2033 290.462 74.3671C289.997 74.5308 289.498 74.603 288.999 74.5786C288.5 74.5543 288.012 74.434 287.57 74.226C287.127 74.018 286.739 73.7271 286.433 73.373C285.72 72.5669 285.364 71.245 285.364 69.4073C285.364 67.5226 285.735 66.1643 286.478 65.3322C286.816 64.934 287.254 64.6132 287.757 64.3962C288.26 64.1792 288.813 64.0722 289.371 64.0837C290.127 64.0595 290.866 64.2938 291.437 64.7393C292.022 65.2455 292.391 65.919 292.48 66.6433Z" fill="white"/>
<path d="M242.829 155.225C248.891 155.225 253.805 150.818 253.805 145.382C253.805 139.946 248.891 135.539 242.829 135.539C236.766 135.539 231.852 139.946 231.852 145.382C231.852 150.818 236.766 155.225 242.829 155.225Z" fill="white"/>
<path d="M241.47 142.922C241.458 143.089 241.485 143.256 241.547 143.414C241.609 143.572 241.705 143.716 241.831 143.84C241.956 143.951 242.107 144.038 242.272 144.095C242.437 144.151 242.614 144.177 242.79 144.169C242.969 144.177 243.148 144.151 243.315 144.094C243.482 144.037 243.634 143.949 243.762 143.837C243.888 143.713 243.985 143.567 244.048 143.409C244.11 143.251 244.137 143.083 244.126 142.915C244.135 142.753 244.107 142.591 244.046 142.439C243.984 142.287 243.889 142.147 243.766 142.028C243.642 141.917 243.493 141.829 243.329 141.772C243.165 141.715 242.989 141.689 242.813 141.696C242.633 141.688 242.453 141.714 242.284 141.771C242.116 141.829 241.962 141.918 241.834 142.032C241.71 142.151 241.614 142.291 241.552 142.444C241.489 142.597 241.461 142.76 241.47 142.922ZM241.272 147.324C241.242 147.783 241.403 148.235 241.724 148.592C241.863 148.738 242.036 148.855 242.231 148.934C242.426 149.012 242.638 149.051 242.851 149.048C243.058 149.052 243.264 149.015 243.453 148.939C243.642 148.863 243.81 148.751 243.944 148.61C244.257 148.25 244.412 147.8 244.377 147.345C244.4 146.922 244.243 146.508 243.937 146.186C243.798 146.044 243.626 145.931 243.433 145.855C243.241 145.779 243.031 145.742 242.821 145.747C242.595 145.733 242.37 145.772 242.166 145.859C241.962 145.946 241.786 146.079 241.656 146.245C241.406 146.56 241.272 146.937 241.272 147.324ZM241.03 144.906C240.534 144.732 240.112 144.422 239.826 144.019C239.577 143.646 239.447 143.218 239.451 142.783C239.439 142.429 239.51 142.077 239.66 141.75C239.81 141.422 240.034 141.127 240.32 140.883C241.028 140.396 241.895 140.133 242.787 140.133C243.679 140.133 244.546 140.396 245.254 140.883C245.542 141.126 245.768 141.421 245.919 141.748C246.07 142.076 246.142 142.428 246.131 142.783C246.142 143.233 246.001 143.677 245.728 144.055C245.454 144.434 245.06 144.73 244.597 144.906C245.167 145.096 245.656 145.442 245.995 145.894C246.334 146.347 246.507 146.884 246.488 147.429C246.514 147.857 246.439 148.286 246.267 148.687C246.095 149.088 245.831 149.452 245.491 149.755C245.151 150.057 244.743 150.292 244.295 150.443C243.846 150.595 243.368 150.659 242.889 150.632C241.976 150.661 241.081 150.401 240.361 149.897C239.969 149.61 239.657 149.245 239.45 148.831C239.243 148.417 239.147 147.966 239.17 147.513C239.164 146.976 239.319 146.447 239.618 145.982C239.945 145.495 240.441 145.117 241.03 144.906Z" fill="white"/>
<path d="M242.829 155.225C248.891 155.225 253.805 150.818 253.805 145.382C253.805 139.946 248.891 135.539 242.829 135.539C236.766 135.539 231.852 139.946 231.852 145.382C231.852 150.818 236.766 155.225 242.829 155.225Z" fill="#FFC25B"/>
<path d="M241.47 142.922C241.458 143.089 241.485 143.256 241.547 143.414C241.609 143.572 241.705 143.716 241.831 143.84C241.956 143.951 242.107 144.038 242.272 144.095C242.437 144.151 242.614 144.177 242.79 144.169C242.969 144.177 243.148 144.151 243.315 144.094C243.482 144.037 243.634 143.949 243.762 143.837C243.888 143.713 243.985 143.567 244.048 143.409C244.11 143.251 244.137 143.083 244.126 142.915C244.135 142.753 244.107 142.591 244.046 142.439C243.984 142.287 243.889 142.147 243.766 142.028C243.642 141.917 243.493 141.829 243.329 141.772C243.165 141.715 242.989 141.689 242.813 141.696C242.633 141.688 242.453 141.714 242.284 141.771C242.116 141.829 241.962 141.918 241.834 142.032C241.71 142.151 241.614 142.291 241.552 142.444C241.489 142.597 241.461 142.76 241.47 142.922ZM241.272 147.324C241.242 147.783 241.403 148.235 241.724 148.592C241.863 148.738 242.036 148.855 242.231 148.934C242.426 149.012 242.638 149.051 242.851 149.048C243.058 149.052 243.264 149.015 243.453 148.939C243.642 148.863 243.81 148.751 243.944 148.61C244.257 148.25 244.412 147.8 244.377 147.345C244.4 146.922 244.243 146.508 243.937 146.186C243.798 146.044 243.626 145.931 243.433 145.855C243.241 145.779 243.031 145.742 242.821 145.747C242.595 145.733 242.37 145.772 242.166 145.859C241.962 145.946 241.786 146.079 241.656 146.245C241.406 146.56 241.272 146.937 241.272 147.324ZM241.03 144.906C240.534 144.732 240.112 144.422 239.826 144.019C239.577 143.646 239.447 143.218 239.451 142.783C239.439 142.429 239.51 142.077 239.66 141.75C239.81 141.422 240.034 141.127 240.32 140.883C241.028 140.396 241.895 140.133 242.787 140.133C243.679 140.133 244.546 140.396 245.254 140.883C245.542 141.126 245.768 141.421 245.919 141.748C246.07 142.076 246.142 142.428 246.131 142.783C246.142 143.233 246.001 143.677 245.728 144.055C245.454 144.434 245.06 144.73 244.597 144.906C245.167 145.096 245.656 145.442 245.995 145.894C246.334 146.347 246.507 146.884 246.488 147.429C246.514 147.857 246.439 148.286 246.267 148.687C246.095 149.088 245.831 149.452 245.491 149.755C245.151 150.057 244.743 150.292 244.295 150.443C243.846 150.595 243.368 150.659 242.889 150.632C241.976 150.661 241.081 150.401 240.361 149.897C239.969 149.61 239.657 149.245 239.45 148.831C239.243 148.417 239.147 147.966 239.17 147.513C239.164 146.976 239.319 146.447 239.618 145.982C239.945 145.495 240.441 145.117 241.03 144.906Z" fill="white"/>
<path d="M150.428 300H0.648398C0.476432 300 0.311499 299.939 0.189901 299.829C0.0683028 299.72 0 299.573 0 299.418C0 299.264 0.0683028 299.116 0.189901 299.007C0.311499 298.898 0.476432 298.837 0.648398 298.837H150.428C150.6 298.837 150.765 298.898 150.887 299.007C151.008 299.116 151.077 299.264 151.077 299.418C151.077 299.573 151.008 299.72 150.887 299.829C150.765 299.939 150.6 300 150.428 300Z" fill="#CCCCCC"/>
</g>
<defs>
<clipPath id="clip0">
<rect width="300" height="300" fill="white"/>
</clipPath>
</defs>
</svg>
