<svg width="300" height="200" viewBox="0 0 300 200" fill="none" xmlns="http://www.w3.org/2000/svg">
<g clip-path="url(#clip0)">
<path d="M174.073 195.563C171.844 197.082 169.428 198.335 166.878 199.295C166.21 199.549 165.539 199.785 164.856 200H130.001C129.86 199.768 129.723 199.531 129.582 199.295C126.754 194.484 124.19 189.485 123.463 184.05C122.591 177.524 125.036 170.134 131.081 166.928C131.873 166.508 132.712 166.175 133.582 165.933C133.942 165.828 134.309 165.743 134.68 165.669C136.946 165.191 139.305 165.295 141.514 165.971C143.724 166.647 145.704 167.87 147.251 169.514C148.799 171.158 149.858 173.165 150.319 175.327C150.78 177.489 150.627 179.73 149.876 181.817C155 176.822 154.043 168.724 152.276 161.955C150.506 155.186 148.362 147.651 151.965 141.57C153.965 138.187 157.486 136.089 161.435 135.242C161.557 135.217 161.68 135.193 161.798 135.171C166.505 134.265 171.399 135.08 175.502 137.454C183.057 141.976 186.934 150.558 188.192 158.96C190.222 172.484 185.732 187.574 174.073 195.563Z" fill="#F2F2F2"/>
<path d="M137.415 169.978C140.205 175.364 141.095 181.461 139.953 187.365C139.091 191.694 137.192 195.776 134.402 199.294C134.213 199.534 134.02 199.77 133.823 200H132.446C132.658 199.77 132.866 199.534 133.062 199.294C135.596 196.294 137.433 192.817 138.453 189.093C139.472 185.37 139.651 181.483 138.977 177.689C138.178 173.421 136.329 169.393 133.582 165.933C133.942 165.827 134.309 165.742 134.68 165.668C135.725 167.024 136.64 168.467 137.415 169.978Z" fill="white"/>
<path d="M170.76 173.883C170.462 176.866 169.708 179.792 168.522 182.568C167.429 185.024 165.955 187.312 164.151 189.354C160.466 193.569 155.59 196.741 150.295 198.85C149.909 199.005 149.519 199.153 149.126 199.294C148.443 199.548 147.753 199.781 147.059 200H143.3C144.187 199.788 145.07 199.552 145.942 199.294C148.016 198.681 150.039 197.923 151.995 197.026C156.966 194.786 161.283 191.42 164.566 187.224C168.088 182.603 169.643 177.047 169.91 171.4C170.192 165.358 169.364 159.206 167.913 153.326C166.433 147.299 164.181 141.467 161.208 135.961C161.142 135.836 161.128 135.692 161.17 135.558C161.212 135.424 161.307 135.311 161.435 135.241C161.542 135.174 161.672 135.149 161.798 135.171C161.86 135.186 161.917 135.214 161.966 135.253C162.015 135.292 162.054 135.341 162.08 135.397C162.448 136.077 162.808 136.758 163.153 137.446C166.034 143.181 168.157 149.233 169.472 155.464C170.745 161.474 171.427 167.763 170.76 173.883Z" fill="white"/>
<path d="M15.7593 99.824C12.6769 99.824 9.6637 98.9551 7.10076 97.3272C4.53782 95.6993 2.54025 93.3856 1.36066 90.6785C0.181066 87.9715 -0.127565 84.9927 0.473786 82.1189C1.07514 79.2451 2.55946 76.6054 4.73906 74.5335C6.91866 72.4616 9.69564 71.0506 12.7188 70.479C15.742 69.9074 18.8757 70.2008 21.7234 71.3221C24.5712 72.4434 27.0053 74.3422 28.7178 76.7785C30.4303 79.2148 31.3443 82.0791 31.3443 85.0092C31.3396 88.9369 29.6961 92.7025 26.7744 95.4799C23.8527 98.2572 19.8913 99.8195 15.7593 99.824ZM15.7593 70.8998C12.8237 70.8998 9.95397 71.7273 7.51307 73.2777C5.07218 74.828 3.16973 77.0316 2.04631 79.6097C0.922889 82.1879 0.628951 85.0248 1.20167 87.7618C1.77438 90.4987 3.18803 93.0127 5.26384 94.986C7.33965 96.9592 9.98439 98.303 12.8636 98.8474C15.7429 99.3918 18.7273 99.1124 21.4394 98.0445C24.1516 96.9766 26.4698 95.1682 28.1007 92.8479C29.7317 90.5276 30.6022 87.7997 30.6022 85.0092C30.5977 81.2684 29.0325 77.6821 26.2499 75.037C23.4673 72.3919 19.6945 70.904 15.7593 70.8998Z" fill="white"/>
<path d="M78.8414 52.2048C75.7589 52.2048 72.7457 51.3359 70.1828 49.7081C67.6199 48.0802 65.6223 45.7664 64.4427 43.0594C63.2631 40.3523 62.9545 37.3736 63.5558 34.4998C64.1572 31.626 65.6415 28.9862 67.8211 26.9144C70.0007 24.8425 72.7777 23.4315 75.8009 22.8599C78.8241 22.2882 81.9577 22.5816 84.8055 23.7029C87.6533 24.8242 90.0873 26.7231 91.7998 29.1593C93.5123 31.5956 94.4264 34.4599 94.4264 37.39C94.4217 41.3178 92.7782 45.0834 89.8564 47.8607C86.9347 50.6381 82.9733 52.2004 78.8414 52.2048ZM78.8414 23.2807C75.9057 23.2807 73.036 24.1082 70.5951 25.6585C68.1542 27.2089 66.2518 29.4125 65.1284 31.9906C64.0049 34.5687 63.711 37.4057 64.2837 40.1426C64.8564 42.8796 66.2701 45.3936 68.3459 47.3668C70.4217 49.34 73.0664 50.6838 75.9457 51.2282C78.8249 51.7727 81.8093 51.4932 84.5215 50.4253C87.2337 49.3574 89.5518 47.549 91.1827 45.2287C92.8137 42.9085 93.6842 40.1806 93.6842 37.39C93.6798 33.6493 92.1145 30.063 89.3319 27.4179C86.5493 24.7728 82.7766 23.2849 78.8414 23.2807Z" fill="white"/>
<path d="M146.377 29.6296C143.294 29.6296 140.281 28.7608 137.718 27.1329C135.155 25.505 133.157 23.1913 131.978 20.4842C130.798 17.7772 130.49 14.7984 131.091 11.9246C131.692 9.0508 133.177 6.41105 135.356 4.33916C137.536 2.26727 140.313 0.856302 143.336 0.284669C146.359 -0.286964 149.493 0.00641998 152.341 1.12772C155.188 2.24902 157.622 4.14786 159.335 6.58415C161.047 9.02043 161.962 11.8847 161.962 14.8148C161.957 18.7426 160.313 22.5082 157.392 25.2856C154.47 28.0629 150.508 29.6252 146.377 29.6296ZM146.377 0.705472C143.441 0.705472 140.571 1.53297 138.13 3.08332C135.689 4.63368 133.787 6.83726 132.663 9.4154C131.54 11.9936 131.246 14.8305 131.819 17.5674C132.392 20.3044 133.805 22.8184 135.881 24.7916C137.957 26.7649 140.602 28.1086 143.481 28.6531C146.36 29.1975 149.344 28.9181 152.057 27.8502C154.769 26.7823 157.087 24.9738 158.718 22.6536C160.349 20.3333 161.219 17.6054 161.219 14.8148C161.215 11.0741 159.65 7.48777 156.867 4.84267C154.084 2.19756 150.312 0.709693 146.377 0.705472Z" fill="white"/>
<path d="M218.364 52.9099C215.282 52.9099 212.269 52.041 209.706 50.4132C207.143 48.7853 205.145 46.4715 203.966 43.7645C202.786 41.0574 202.477 38.0787 203.079 35.2049C203.68 32.3311 205.164 29.6913 207.344 27.6194C209.524 25.5475 212.301 24.1366 215.324 23.5649C218.347 22.9933 221.481 23.2867 224.328 24.408C227.176 25.5293 229.61 27.4281 231.323 29.8644C233.035 32.3007 233.949 35.165 233.949 38.0951C233.945 42.0229 232.301 45.7885 229.379 48.5658C226.458 51.3432 222.496 52.9055 218.364 52.9099ZM218.364 23.9857C215.429 23.9857 212.559 24.8132 210.118 26.3636C207.677 27.914 205.775 30.1175 204.651 32.6957C203.528 35.2738 203.234 38.1107 203.807 40.8477C204.379 43.5846 205.793 46.0987 207.869 48.0719C209.945 50.0451 212.589 51.3889 215.469 51.9333C218.348 52.4778 221.332 52.1983 224.044 51.1304C226.757 50.0625 229.075 48.2541 230.706 45.9338C232.337 43.6136 233.207 40.8857 233.207 38.0951C233.203 34.3544 231.638 30.768 228.855 28.1229C226.072 25.4778 222.3 23.99 218.364 23.9857Z" fill="white"/>
<path d="M284.415 88.5359C281.333 88.5359 278.319 87.667 275.757 86.0391C273.194 84.4113 271.196 82.0975 270.016 79.3905C268.837 76.6834 268.528 73.7046 269.13 70.8309C269.731 67.9571 271.215 65.3173 273.395 63.2454C275.574 61.1735 278.351 59.7626 281.375 59.1909C284.398 58.6193 287.531 58.9127 290.379 60.034C293.227 61.1553 295.661 63.0541 297.374 65.4904C299.086 67.9267 300 70.791 300 73.7211C299.995 77.6488 298.352 81.4145 295.43 84.1918C292.508 86.9692 288.547 88.5314 284.415 88.5359ZM284.415 59.6117C281.479 59.6117 278.61 60.4392 276.169 61.9896C273.728 63.5399 271.825 65.7435 270.702 68.3217C269.579 70.8998 269.285 73.7367 269.857 76.4737C270.43 79.2106 271.844 81.7247 273.92 83.6979C275.995 85.6711 278.64 87.0149 281.519 87.5593C284.399 88.1037 287.383 87.8243 290.095 86.7564C292.807 85.6885 295.126 83.8801 296.757 81.5598C298.387 79.2395 299.258 76.5116 299.258 73.7211C299.254 69.9803 297.688 66.394 294.906 63.7489C292.123 61.1038 288.35 59.6159 284.415 59.6117Z" fill="white"/>
<path d="M87.747 33.3324L89.6024 32.9797C89.6024 32.9797 88.0439 34.6375 87.747 34.7434C87.7193 35.0956 87.7193 35.4493 87.747 35.8016C84.1848 50.3342 71.0488 43.9144 71.0488 43.9144C75.8356 44.0203 76.2438 42.1508 76.2438 42.1508C73.4608 41.7628 72.9042 40.0344 72.9042 40.0344C73.1539 40.1596 73.4434 40.1928 73.7173 40.1277C73.9911 40.0626 74.2301 39.9038 74.3885 39.6816C71.3828 38.9409 71.791 36.1543 71.791 36.1543C72.3267 36.522 72.9528 36.7527 73.6092 36.8245C73.2753 36.4365 70.4551 33.2266 72.162 31.5687C72.162 31.5687 74.24 35.0961 79.6948 35.4135L80.0659 35.343C80.0028 35.089 79.9778 34.8277 79.9916 34.567C79.9916 33.5847 80.4021 32.6427 81.1328 31.9481C81.8635 31.2535 82.8545 30.8633 83.8879 30.8633C86.4854 30.8633 87.042 32.2742 87.042 32.2742L88.8974 31.216C88.8603 31.216 88.6747 32.9797 87.747 33.3324Z" fill="white"/>
<path d="M206.241 190.347L210.326 192.25L219.993 178.178L213.965 175.369L206.241 190.347Z" fill="#FFB8B8"/>
<path d="M205.853 188.594L213.898 192.342L213.898 192.342C214.571 192.656 215.173 193.093 215.668 193.627C216.164 194.162 216.544 194.785 216.787 195.459C217.03 196.133 217.13 196.846 217.083 197.558C217.036 198.269 216.841 198.965 216.511 199.605L216.43 199.763L203.258 193.626L205.853 188.594Z" fill="#2F2E41"/>
<path d="M246.723 196.982L251.272 196.981L253.436 180.302H246.722L246.723 196.982Z" fill="#FFB8B8"/>
<path d="M245.562 194.159L254.521 194.158H254.522C255.271 194.158 256.014 194.299 256.707 194.571C257.399 194.844 258.029 195.244 258.559 195.748C259.089 196.252 259.51 196.85 259.797 197.508C260.084 198.167 260.231 198.873 260.231 199.585V199.762L245.563 199.762L245.562 194.159Z" fill="#2F2E41"/>
<path d="M236.951 81.8661C241.984 81.8661 246.065 77.9873 246.065 73.2026C246.065 68.4178 241.984 64.5391 236.951 64.5391C231.917 64.5391 227.837 68.4178 227.837 73.2026C227.837 77.9873 231.917 81.8661 236.951 81.8661Z" fill="#FFB8B8"/>
<path d="M246.027 191.48C245.597 191.479 245.184 191.321 244.873 191.038C244.563 190.755 244.379 190.37 244.36 189.962L240.838 145.39C240.833 145.273 240.789 145.161 240.711 145.071C240.632 144.98 240.525 144.917 240.405 144.891C240.285 144.865 240.16 144.878 240.048 144.926C239.937 144.975 239.845 145.058 239.788 145.161L217.252 186.058C217.048 186.425 216.701 186.702 216.285 186.829C215.87 186.957 215.418 186.925 215.026 186.741L208.744 183.755C208.35 183.567 208.05 183.239 207.91 182.841C207.769 182.444 207.799 182.01 207.994 181.633L221.441 155.732L230.347 136.329C233.785 129.892 237.436 126.575 241.508 126.188C245.685 125.792 250.147 128.522 255.149 134.536L255.19 134.585L255.189 134.648L254.447 189.095C254.448 189.49 254.293 189.872 254.013 190.164C253.733 190.456 253.347 190.638 252.933 190.673L246.19 191.472C246.135 191.477 246.081 191.48 246.027 191.48Z" fill="#2F2E41"/>
<path d="M227.332 139.463C227.828 139.172 228.251 138.782 228.57 138.319C228.89 137.856 229.1 137.332 229.183 136.783C229.267 136.235 229.224 135.676 229.055 135.146C228.887 134.615 228.599 134.126 228.211 133.713L229.585 99.1963L222.906 99.9876L222.342 133.568C221.656 134.234 221.25 135.116 221.202 136.048C221.154 136.979 221.467 137.895 222.082 138.622C222.697 139.349 223.571 139.836 224.539 139.991C225.506 140.146 226.5 139.958 227.332 139.463Z" fill="#FFB8B8"/>
<path d="M231.557 105.299L222.587 104.33C222.332 104.302 222.086 104.223 221.866 104.097C221.646 103.97 221.457 103.801 221.313 103.599C221.168 103.397 221.071 103.168 221.027 102.928C220.984 102.687 220.996 102.44 221.062 102.204L223.378 93.9373C223.533 92.6969 224.2 91.5659 225.232 90.7923C226.264 90.0186 227.576 89.6654 228.881 89.8101C230.187 89.9548 231.378 90.5855 232.195 91.5641C233.012 92.5426 233.387 93.7891 233.239 95.0303L233.545 103.553C233.554 103.797 233.507 104.04 233.408 104.265C233.309 104.49 233.16 104.693 232.971 104.859C232.783 105.024 232.559 105.149 232.315 105.225C232.071 105.301 231.812 105.326 231.557 105.299V105.299Z" fill="#FFC25B"/>
<path d="M270.195 83.5701C270.15 83.7604 270.12 83.9538 270.107 84.1486L254.166 92.89L250.292 90.7698L246.161 95.9099L252.637 100.297C253.16 100.651 253.79 100.835 254.432 100.82C255.074 100.805 255.694 100.593 256.198 100.215L272.635 87.888C273.377 88.149 274.185 88.1892 274.951 88.0031C275.718 87.8171 276.407 87.4136 276.926 86.8464C277.445 86.2793 277.77 85.5752 277.859 84.828C277.947 84.0808 277.793 83.3258 277.419 82.6634C277.045 82.001 276.467 81.4626 275.763 81.1199C275.059 80.7772 274.262 80.6463 273.478 80.7448C272.694 80.8432 271.96 81.1662 271.373 81.6709C270.787 82.1756 270.376 82.838 270.195 83.5701Z" fill="#FFB8B8"/>
<path d="M253.633 93.3047L248.481 99.6518C248.335 99.8324 248.149 99.9808 247.937 100.087C247.724 100.193 247.49 100.255 247.251 100.267C247.011 100.28 246.772 100.243 246.548 100.159C246.325 100.076 246.123 99.9475 245.957 99.7832L240.124 94.0262C239.156 93.3083 238.527 92.2545 238.374 91.096C238.222 89.9375 238.56 88.769 239.313 87.8468C240.066 86.9245 241.173 86.3239 242.392 86.1768C243.61 86.0296 244.84 86.3479 245.812 87.0618L253.127 90.9499C253.336 91.0613 253.518 91.2142 253.659 91.3984C253.801 91.5825 253.899 91.7935 253.947 92.017C253.995 92.2405 253.992 92.4712 253.938 92.6934C253.884 92.9156 253.78 93.1241 253.633 93.3047H253.633Z" fill="#FFC25B"/>
<path d="M257.836 137.236L247.945 91.4405C247.475 89.2639 246.136 87.3453 244.209 86.0877C242.282 84.8302 239.917 84.3317 237.611 84.6969L234.312 85.2195C233.167 85.4011 232.07 85.7954 231.084 86.3799C230.098 86.9645 229.244 87.7278 228.568 88.6264C227.496 90.0541 226.773 91.6922 226.454 93.4202C226.134 95.1483 226.226 96.9224 226.723 98.6122L232.182 117.185L228.131 137.084C228.086 137.305 228.097 137.532 228.163 137.748C228.229 137.964 228.349 138.162 228.512 138.325C228.675 138.488 228.876 138.611 229.1 138.685C229.323 138.759 229.562 138.781 229.796 138.749C231.824 138.473 235.168 138.079 239.008 137.865L241.088 130.237L241.934 137.744C246.651 137.618 251.772 137.838 255.997 138.881C256.241 138.943 256.498 138.945 256.743 138.886C256.989 138.827 257.214 138.71 257.398 138.545C257.582 138.38 257.719 138.174 257.796 137.944C257.872 137.715 257.886 137.471 257.836 137.236Z" fill="#FFC25B"/>
<path d="M240.458 71.2746C242.8 72.7986 245.876 74.3652 248.269 72.7423C249.839 71.6766 250.334 69.7033 249.697 67.9716C248.552 64.8574 245.404 63.4865 242.395 62.4356C238.482 61.0694 234.221 59.9826 230.182 60.961C226.143 61.9393 222.573 65.6569 223.302 69.5581C223.889 72.6954 227.002 75.3059 226.56 78.4645C226.115 81.6434 222.354 83.3166 219.034 83.8848C215.714 84.4529 211.998 84.6355 209.612 86.9025C206.568 89.7945 207.328 94.9636 210.193 98.017C213.057 101.07 217.379 102.454 221.567 103.395C227.117 104.642 233.119 105.297 238.389 103.228C243.659 101.159 247.761 95.59 246.234 90.3676C245.589 88.1617 244.07 86.2974 242.602 84.4824C241.133 82.6675 239.647 80.7695 239.087 78.5428C238.62 76.6871 238.965 74.5327 240.26 73.1407C240.495 72.8971 240.643 72.5888 240.683 72.2601C240.723 71.9314 240.652 71.5992 240.48 71.3113L240.458 71.2746Z" fill="#2F2E41"/>
<path d="M150.621 7.48559C151.659 7.48854 152.654 7.88187 153.388 8.57968C154.122 9.27749 154.536 10.2231 154.539 11.2099V18.6578C154.536 19.6447 154.122 20.5903 153.388 21.2881C152.654 21.9859 151.659 22.3792 150.621 22.3822H142.786C141.748 22.3792 140.753 21.9859 140.019 21.2881C139.285 20.5903 138.871 19.6447 138.868 18.6578V11.2099C138.871 10.2231 139.285 9.27749 140.019 8.57968C140.753 7.88187 141.748 7.48854 142.786 7.48559H150.621ZM150.621 5.99609H142.786C141.333 6.00012 139.94 6.55072 138.912 7.52763C137.885 8.50455 137.306 9.82837 137.301 11.2099V18.6578C137.306 20.0394 137.885 21.3632 138.912 22.3401C139.94 23.317 141.333 23.8676 142.786 23.8717H150.621C152.075 23.8676 153.467 23.317 154.495 22.3401C155.523 21.3632 156.102 20.0394 156.106 18.6578V11.2099C156.102 9.82837 155.523 8.50455 154.495 7.52763C153.467 6.55072 152.075 6.00012 150.621 5.99609Z" fill="white"/>
<path d="M151.796 11.2101C151.486 11.2095 151.188 11.0916 150.968 10.8823C150.749 10.6731 150.626 10.3896 150.626 10.0941C150.627 9.79863 150.75 9.51538 150.97 9.30657C151.19 9.09775 151.488 8.98047 151.799 8.98047C152.11 8.98047 152.408 9.09775 152.628 9.30657C152.848 9.51538 152.971 9.79863 152.972 10.0941C152.972 10.3896 152.849 10.6731 152.63 10.8823C152.41 11.0916 152.112 11.2095 151.802 11.2101C151.8 11.2101 151.798 11.2101 151.796 11.2101Z" fill="white"/>
<path d="M146.704 11.9553C147.324 11.9553 147.93 12.1301 148.445 12.4574C148.96 12.7848 149.362 13.2501 149.599 13.7945C149.837 14.339 149.899 14.938 149.778 15.516C149.657 16.0939 149.358 16.6248 148.92 17.0415C148.482 17.4581 147.923 17.7419 147.315 17.8568C146.707 17.9718 146.077 17.9128 145.504 17.6873C144.932 17.4618 144.442 17.0799 144.098 16.59C143.753 16.1 143.569 15.524 143.569 14.9347C143.569 14.1445 143.9 13.3867 144.487 12.828C145.075 12.2692 145.872 11.9553 146.704 11.9553ZM146.704 10.4658C145.774 10.4658 144.865 10.7279 144.092 11.219C143.319 11.71 142.716 12.4079 142.36 13.2245C142.004 14.0411 141.911 14.9397 142.093 15.8065C142.274 16.6734 142.722 17.4697 143.379 18.0947C144.037 18.7197 144.875 19.1453 145.786 19.3177C146.698 19.4902 147.644 19.4017 148.503 19.0634C149.362 18.7252 150.096 18.1524 150.613 17.4175C151.129 16.6826 151.405 15.8186 151.405 14.9347C151.405 13.7495 150.91 12.6128 150.028 11.7747C149.146 10.9367 147.95 10.4658 146.704 10.4658V10.4658Z" fill="white"/>
<path d="M60.5469 195.32L56.1189 194.328L58.0355 177.621L64.5708 179.085L60.5469 195.32Z" fill="#FFB8B8"/>
<path d="M60.6649 199.653L46.3872 196.455L46.4298 196.283C46.6017 195.59 46.9156 194.935 47.3537 194.357C47.7918 193.778 48.3455 193.287 48.9831 192.912C49.6207 192.538 50.3298 192.286 51.0698 192.171C51.8099 192.057 52.5664 192.082 53.2962 192.245L53.2965 192.245L62.0169 194.198L60.6649 199.653Z" fill="#2F2E41"/>
<path d="M77.8025 195.46H73.2532L71.0891 178.78L77.8033 178.781L77.8025 195.46Z" fill="#FFB8B8"/>
<path d="M78.9626 199.653L64.2939 199.652V199.476C64.2939 198.763 64.4416 198.058 64.7285 197.399C65.0155 196.741 65.436 196.142 65.9662 195.638C66.4964 195.134 67.1258 194.735 67.8185 194.462C68.5112 194.189 69.2536 194.049 70.0034 194.049H70.0038L78.9629 194.049L78.9626 199.653Z" fill="#2F2E41"/>
<path d="M102.373 129.494C102.677 129.022 102.87 128.492 102.936 127.942C103.001 127.391 102.94 126.834 102.754 126.308C102.569 125.783 102.265 125.303 101.864 124.901C101.462 124.5 100.973 124.187 100.43 123.985L87.1109 91.8779L79.7004 96.1541L95.1231 126.37C94.826 127.258 94.8824 128.22 95.2814 129.072C95.6803 129.924 96.3943 130.608 97.2879 130.993C98.1815 131.378 99.1927 131.438 100.13 131.162C101.067 130.886 101.865 130.292 102.373 129.494Z" fill="#FFB8B8"/>
<path d="M89.9414 97.1872L81.4755 100.166C81.2346 100.251 80.9773 100.285 80.7212 100.267C80.4651 100.249 80.2161 100.178 79.9912 100.06C79.7663 99.9422 79.5709 99.7795 79.4181 99.5833C79.2653 99.387 79.1589 99.1617 79.106 98.9228L77.2523 90.551C76.8032 89.377 76.8621 88.0817 77.4161 86.949C77.9701 85.8163 78.974 84.9386 80.2078 84.5084C81.4415 84.0782 82.8043 84.1306 83.9975 84.654C85.1906 85.1775 86.1167 86.1293 86.5728 87.3008L90.8882 94.7769C91.0117 94.991 91.0852 95.2279 91.1037 95.4714C91.1222 95.7149 91.0852 95.9594 90.9954 96.1881C90.9055 96.4168 90.7649 96.6245 90.583 96.7969C90.4011 96.9693 90.1823 97.1024 89.9414 97.1872V97.1872Z" fill="#FFC25B"/>
<path d="M77.5003 189.473C77.4781 189.473 77.4558 189.473 77.4334 189.472L70.9851 189.227C70.5494 189.213 70.137 189.036 69.837 188.735C69.5371 188.434 69.3738 188.033 69.3823 187.619L69.877 153.757C69.8791 153.62 69.8258 153.489 69.7283 153.389C69.6307 153.289 69.4965 153.229 69.3535 153.221C69.2104 153.213 69.0696 153.257 68.9603 153.345C68.8511 153.434 68.7818 153.558 68.7669 153.694L65.0262 187.593C64.9873 187.939 64.8308 188.262 64.5805 188.515C64.3303 188.768 64 188.936 63.64 188.994L63.6176 188.997L57.5641 188.545C57.3255 188.579 57.0818 188.564 56.8499 188.501C56.618 188.437 56.4033 188.327 56.2207 188.177C56.0381 188.027 55.8919 187.841 55.7921 187.632C55.6924 187.423 55.6414 187.196 55.6429 186.967L56.0048 129.549L85.7094 131.336L79.16 188.059C79.114 188.447 78.9194 188.806 78.6134 189.067C78.3074 189.327 77.9112 189.472 77.5003 189.473Z" fill="#2F2E41"/>
<path d="M72.0707 79.4247C77.1041 79.4247 81.1846 75.5459 81.1846 70.7612C81.1846 65.9764 77.1041 62.0977 72.0707 62.0977C67.0372 62.0977 62.9568 65.9764 62.9568 70.7612C62.9568 75.5459 67.0372 79.4247 72.0707 79.4247Z" fill="#FFB8B8"/>
<path d="M84.2326 133.864C84.1908 133.864 84.1487 133.862 84.1065 133.859L56.6533 131.95C56.2265 131.921 55.828 131.736 55.54 131.435C55.252 131.135 55.0965 130.74 55.1056 130.334L55.8294 97.563C55.7809 95.5523 56.1646 93.5533 56.9569 91.6884C57.7492 89.8235 58.9336 88.1319 60.4374 86.7171C61.9412 85.3023 63.733 84.1941 65.703 83.4604C67.673 82.7266 69.7797 82.3826 71.8944 82.4496C74.009 82.5166 76.087 82.993 78.0013 83.8498C79.9155 84.7066 81.6257 85.9256 83.0272 87.4324C84.4287 88.9392 85.4919 90.702 86.1519 92.6129C86.8119 94.5238 87.0548 96.5426 86.8656 98.5458C86.3856 103.596 86.0037 125.66 85.8981 132.302C85.8914 132.718 85.713 133.115 85.4014 133.407C85.0899 133.699 84.6701 133.863 84.2326 133.864Z" fill="#FFC25B"/>
<path d="M35.3085 80.491C35.3541 80.6813 35.3838 80.8747 35.3973 81.0695L51.3376 89.8109L55.2121 87.6907L59.3426 92.8308L52.8673 97.218C52.3441 97.5724 51.7142 97.7559 51.072 97.741C50.4298 97.7262 49.81 97.5137 49.3056 97.1355L32.8685 84.8089C32.1267 85.0699 31.3188 85.1101 30.5524 84.924C29.786 84.738 29.0974 84.3345 28.5781 83.7673C28.0588 83.2002 27.7334 82.4962 27.6453 81.7489C27.5572 81.0017 27.7105 80.2467 28.0848 79.5843C28.4592 78.9219 29.0368 78.3835 29.7408 78.0408C30.4448 77.6981 31.242 77.5672 32.0262 77.6657C32.8104 77.7641 33.5444 78.0871 34.1308 78.5918C34.7171 79.0965 35.1279 79.7589 35.3085 80.491Z" fill="#FFB8B8"/>
<path d="M51.5565 88.9372C51.6045 88.7137 51.7026 88.5027 51.8442 88.3186C51.9858 88.1344 52.1676 87.9815 52.377 87.8702L59.6919 83.9821C60.6639 83.2695 61.8933 82.9523 63.1109 83.0999C64.3284 83.2475 65.4347 83.8479 66.1874 84.7696C66.94 85.6913 67.2776 86.859 67.1261 88.0168C66.9746 89.1746 66.3464 90.2282 65.3792 90.9465L59.547 96.7035C59.3805 96.8678 59.1787 96.9961 58.9554 97.0796C58.7321 97.1631 58.4925 97.1998 58.2529 97.1873C58.0133 97.1749 57.7794 97.1135 57.567 97.0073C57.3546 96.9011 57.1688 96.7527 57.0222 96.5721L51.8704 90.225C51.7237 90.0444 51.6197 89.8359 51.5655 89.6137C51.5113 89.3914 51.5083 89.1607 51.5565 88.9372Z" fill="#FFC25B"/>
<path d="M76.7806 77.6203C75.378 77.6104 74.0008 77.2628 72.7778 76.6099C71.5547 75.957 70.5257 75.0202 69.7866 73.8869C69.7064 73.7674 69.2677 73.155 68.7598 72.446C67.3324 70.4536 66.9977 69.9796 66.9693 69.9101C66.583 68.9628 65.357 68.597 64.3966 68.4568C64.2174 68.4306 64.0356 68.4075 63.8533 68.3841C62.5005 68.2118 61.1018 68.0337 60.3349 66.6204C59.7723 65.5832 58.8523 61.3597 59.5589 60.3277C60.4446 59.0332 62.1455 59.4534 63.7904 59.8602C64.8429 60.12 65.931 60.389 66.7982 60.2175C70.5568 59.4741 74.817 58.6315 78.5793 60.8096C81.5737 62.5426 83.3747 65.8157 83.2796 69.3517C83.1775 73.1487 81.4354 76.1459 78.6194 77.3695L78.0332 77.5317L77.7034 77.5703C77.3971 77.6035 77.089 77.6202 76.7806 77.6203Z" fill="#2F2E41"/>
<path d="M284.961 64.127C282.614 64.1271 280.339 64.895 278.517 66.3015C276.696 67.708 275.439 69.6674 274.958 71.8508C274.477 74.0342 274.801 76.3084 275.875 78.2915C276.95 80.2747 278.71 81.8459 280.859 82.7413C280.816 81.994 280.876 81.2446 281.037 80.5121C281.233 79.7227 282.351 75.2166 282.351 75.2166C282.128 74.7329 282.016 74.2095 282.022 73.6813C282.022 72.2415 282.898 71.1659 283.993 71.1659C284.924 71.1659 285.371 71.8294 285.371 72.6231C285.371 73.5122 284.774 74.8393 284.468 76.071C284.407 76.2992 284.403 76.5378 284.457 76.7675C284.511 76.9973 284.621 77.2118 284.778 77.3937C284.936 77.5756 285.136 77.7198 285.362 77.8148C285.589 77.9097 285.836 77.9527 286.083 77.9402C288.017 77.9402 289.322 75.5766 289.322 72.7749C289.322 70.6454 287.812 69.0538 285.07 69.0538C281.972 69.0538 280.038 71.2526 280.038 73.7073C280.007 74.3995 280.248 75.0779 280.713 75.6113C280.795 75.6753 280.853 75.7623 280.879 75.8597C280.905 75.9572 280.898 76.06 280.859 76.1534C280.809 76.3312 280.699 76.7606 280.649 76.9341C280.64 76.9865 280.619 77.0362 280.586 77.0791C280.553 77.1219 280.509 77.1567 280.459 77.1804C280.409 77.2042 280.354 77.2163 280.298 77.2157C280.242 77.215 280.188 77.2018 280.138 77.1769C278.71 76.6218 278.044 75.1386 278.044 73.4645C278.044 70.7062 280.494 67.397 285.348 67.397C289.249 67.397 291.818 70.0816 291.818 72.9614C291.818 76.7736 289.587 79.6187 286.302 79.6187C285.198 79.6187 284.162 79.0505 283.806 78.4086C283.806 78.4086 283.213 80.6465 283.085 81.0802C282.849 81.8171 282.504 82.5182 282.059 83.162C283.465 83.5566 284.943 83.6593 286.394 83.4631C287.845 83.2668 289.235 82.7762 290.469 82.0246C291.703 81.2729 292.753 80.2778 293.547 79.1066C294.34 77.9355 294.86 76.6157 295.07 75.2369C295.281 73.858 295.176 72.4524 294.765 71.1152C294.353 69.778 293.644 68.5406 292.685 67.4868C291.726 66.4331 290.54 65.5877 289.207 65.008C287.875 64.4283 286.426 64.1278 284.961 64.127Z" fill="white"/>
<path d="M227.41 32.2632L214.265 28.4189C214.098 28.3617 213.922 28.3363 213.745 28.3442C213.568 28.352 213.394 28.3931 213.234 28.4648C213.074 28.5366 212.931 28.6377 212.812 28.7624C212.693 28.8871 212.601 29.0329 212.542 29.1914L208.488 41.7145C208.388 42.0541 208.429 42.4172 208.602 42.729C208.775 43.0409 209.068 43.2778 209.419 43.3911L222.56 47.2342C222.91 47.3225 223.283 47.2761 223.597 47.1051C223.911 46.9341 224.142 46.6523 224.239 46.3208L228.292 33.7976C228.345 33.6419 228.365 33.4775 228.349 33.3144C228.333 33.1513 228.282 32.993 228.2 32.8493C228.117 32.7056 228.004 32.5794 227.868 32.4787C227.733 32.3779 227.576 32.3045 227.41 32.2632ZM213.762 41.9332L211.506 41.2733L213.664 34.6044L215.92 35.2643L213.762 41.9332ZM215.199 33.9432L215.182 33.9384C214.858 33.8415 214.588 33.6264 214.431 33.3403C214.273 33.0542 214.241 32.7204 214.342 32.4121C214.443 32.1038 214.669 31.8461 214.969 31.6955C215.27 31.5448 215.621 31.5136 215.945 31.6085C216.27 31.7035 216.542 31.9169 216.701 32.202C216.861 32.4871 216.895 32.8207 216.796 33.1296C216.697 33.4385 216.473 33.6976 216.174 33.8501C215.875 34.0026 215.524 34.0361 215.199 33.9432ZM222.009 44.3449L219.752 43.685L220.932 40.0386C221.215 39.165 221.08 38.4721 220.264 38.2333C220.008 38.1606 219.734 38.1651 219.481 38.2463C219.228 38.3275 219.008 38.4814 218.85 38.6867C218.735 38.8386 218.651 39.0094 218.602 39.1906L217.372 42.9891L215.116 42.3292L217.274 35.6602L219.531 36.3201L219.23 37.2482C219.545 36.9705 219.933 36.7785 220.353 36.6924C220.773 36.6064 221.209 36.6294 221.616 36.7591C223.097 37.1923 223.917 38.4481 223.27 40.4489L222.009 44.3449Z" fill="white"/>
<path fill-rule="evenodd" clip-rule="evenodd" d="M25.9475 85.0667C25.9471 83.216 25.3889 81.4041 24.3389 79.8456C23.289 78.2871 21.7912 77.0472 20.0229 76.2727C18.2547 75.4981 16.29 75.2215 14.3615 75.4754C12.433 75.7293 10.6213 76.5031 9.14111 77.7054C7.66088 78.9076 6.57402 80.4878 6.0092 82.2589C5.44438 84.03 5.42525 85.9179 5.95407 87.6991C6.4829 89.4802 7.53754 91.08 8.99313 92.3091C10.4487 93.5382 12.2443 94.3451 14.1673 94.6343V87.8671H11.5798V85.0667H14.1673V82.9326C14.1673 80.5058 15.6888 79.1643 18.0157 79.1643C18.7798 79.1744 19.5422 79.2377 20.2966 79.3536V81.7372H19.0113C17.7464 81.7372 17.3507 82.4834 17.3507 83.2504V85.0672H20.1761L19.7249 87.8675H17.3507V94.6351C19.7474 94.2743 21.93 93.1124 23.5059 91.3584C25.0818 89.6044 25.9475 87.3734 25.9475 85.0667L25.9475 85.0667Z" fill="white"/>
<path d="M299.826 199.648C299.825 199.741 299.786 199.831 299.717 199.897C299.647 199.963 299.553 200 299.455 200H0.371071C0.272657 200 0.178273 199.963 0.108684 199.897C0.0390946 199.831 0 199.741 0 199.648C0 199.554 0.0390946 199.464 0.108684 199.398C0.178273 199.332 0.272657 199.295 0.371071 199.295H299.455C299.553 199.295 299.647 199.332 299.717 199.399C299.786 199.465 299.825 199.554 299.826 199.648Z" fill="white"/>
</g>
<defs>
<clipPath id="clip0">
<rect width="300" height="200" fill="white"/>
</clipPath>
</defs>
</svg>
